<mxfile host="app.diagrams.net" modified="2023-05-31T12:56:21.451Z" agent="Mozilla/5.0 (Windows NT 10.0; Win64; x64) AppleWebKit/537.36 (KHTML, like Gecko) Chrome/114.0.0.0 Safari/537.36" etag="OgQbcfJt8_GKtTO4VrhX" version="21.3.6" type="device">
  <diagram id="C5RBs43oDa-KdzZeNtuy" name="Page-1">
    <mxGraphModel dx="4229" dy="2332" grid="1" gridSize="10" guides="1" tooltips="1" connect="1" arrows="1" fold="1" page="1" pageScale="1" pageWidth="827" pageHeight="1169" math="0" shadow="0">
      <root>
        <mxCell id="WIyWlLk6GJQsqaUBKTNV-0" />
        <mxCell id="WIyWlLk6GJQsqaUBKTNV-1" parent="WIyWlLk6GJQsqaUBKTNV-0" />
        <mxCell id="viFl9zNwuLz6WSdBjjEk-42" style="edgeStyle=orthogonalEdgeStyle;rounded=0;orthogonalLoop=1;jettySize=auto;html=1;" parent="WIyWlLk6GJQsqaUBKTNV-1" source="viFl9zNwuLz6WSdBjjEk-43" target="viFl9zNwuLz6WSdBjjEk-58" edge="1">
          <mxGeometry relative="1" as="geometry">
            <mxPoint x="-740" y="347.5" as="targetPoint" />
          </mxGeometry>
        </mxCell>
        <mxCell id="viFl9zNwuLz6WSdBjjEk-43" value="Start&lt;br&gt;(Age function)" style="rounded=1;whiteSpace=wrap;html=1;fillColor=#fff2cc;strokeColor=#d6b656;" parent="WIyWlLk6GJQsqaUBKTNV-1" vertex="1">
          <mxGeometry x="-920" y="328.75" width="120" height="37.5" as="geometry" />
        </mxCell>
        <mxCell id="viFl9zNwuLz6WSdBjjEk-44" style="edgeStyle=orthogonalEdgeStyle;rounded=0;orthogonalLoop=1;jettySize=auto;html=1;" parent="WIyWlLk6GJQsqaUBKTNV-1" target="viFl9zNwuLz6WSdBjjEk-50" edge="1">
          <mxGeometry relative="1" as="geometry">
            <mxPoint x="-640.0000000000002" y="347.5" as="sourcePoint" />
          </mxGeometry>
        </mxCell>
        <mxCell id="viFl9zNwuLz6WSdBjjEk-48" style="edgeStyle=orthogonalEdgeStyle;rounded=0;orthogonalLoop=1;jettySize=auto;html=1;" parent="WIyWlLk6GJQsqaUBKTNV-1" source="viFl9zNwuLz6WSdBjjEk-50" target="viFl9zNwuLz6WSdBjjEk-53" edge="1">
          <mxGeometry relative="1" as="geometry" />
        </mxCell>
        <mxCell id="viFl9zNwuLz6WSdBjjEk-49" value="True" style="edgeLabel;html=1;align=center;verticalAlign=middle;resizable=0;points=[];" parent="viFl9zNwuLz6WSdBjjEk-48" vertex="1" connectable="0">
          <mxGeometry x="-0.3043" y="-1" relative="1" as="geometry">
            <mxPoint as="offset" />
          </mxGeometry>
        </mxCell>
        <mxCell id="viFl9zNwuLz6WSdBjjEk-67" value="False" style="edgeStyle=orthogonalEdgeStyle;rounded=0;orthogonalLoop=1;jettySize=auto;html=1;" parent="WIyWlLk6GJQsqaUBKTNV-1" source="viFl9zNwuLz6WSdBjjEk-50" target="viFl9zNwuLz6WSdBjjEk-68" edge="1">
          <mxGeometry relative="1" as="geometry">
            <mxPoint x="-511" y="422.5" as="targetPoint" />
          </mxGeometry>
        </mxCell>
        <mxCell id="viFl9zNwuLz6WSdBjjEk-50" value="If age is&lt;br&gt;&amp;nbsp;&amp;gt;=13 or &amp;lt;=18" style="rhombus;whiteSpace=wrap;html=1;fillColor=#f8cecc;strokeColor=#b85450;" parent="WIyWlLk6GJQsqaUBKTNV-1" vertex="1">
          <mxGeometry x="-566" y="302.5" width="110" height="90" as="geometry" />
        </mxCell>
        <mxCell id="viFl9zNwuLz6WSdBjjEk-51" value="end" style="rounded=1;whiteSpace=wrap;html=1;fillColor=#fff2cc;strokeColor=#d6b656;" parent="WIyWlLk6GJQsqaUBKTNV-1" vertex="1">
          <mxGeometry x="-410" y="432.5" width="120" height="37.5" as="geometry" />
        </mxCell>
        <mxCell id="viFl9zNwuLz6WSdBjjEk-74" style="edgeStyle=orthogonalEdgeStyle;rounded=0;orthogonalLoop=1;jettySize=auto;html=1;entryX=0.5;entryY=0;entryDx=0;entryDy=0;" parent="WIyWlLk6GJQsqaUBKTNV-1" source="viFl9zNwuLz6WSdBjjEk-53" target="viFl9zNwuLz6WSdBjjEk-51" edge="1">
          <mxGeometry relative="1" as="geometry" />
        </mxCell>
        <mxCell id="viFl9zNwuLz6WSdBjjEk-53" value="Open frame_1 function" style="rounded=0;whiteSpace=wrap;html=1;fillColor=#d5e8d4;strokeColor=#82b366;" parent="WIyWlLk6GJQsqaUBKTNV-1" vertex="1">
          <mxGeometry x="-410" y="317.5" width="120" height="60" as="geometry" />
        </mxCell>
        <mxCell id="viFl9zNwuLz6WSdBjjEk-77" style="edgeStyle=orthogonalEdgeStyle;rounded=0;orthogonalLoop=1;jettySize=auto;html=1;" parent="WIyWlLk6GJQsqaUBKTNV-1" source="viFl9zNwuLz6WSdBjjEk-54" target="viFl9zNwuLz6WSdBjjEk-76" edge="1">
          <mxGeometry relative="1" as="geometry" />
        </mxCell>
        <mxCell id="viFl9zNwuLz6WSdBjjEk-54" value="Start&lt;br&gt;(Frame0)" style="rounded=1;whiteSpace=wrap;html=1;fillColor=#fff2cc;strokeColor=#d6b656;" parent="WIyWlLk6GJQsqaUBKTNV-1" vertex="1">
          <mxGeometry x="-900" y="120" width="120" height="37.5" as="geometry" />
        </mxCell>
        <mxCell id="viFl9zNwuLz6WSdBjjEk-61" style="edgeStyle=orthogonalEdgeStyle;rounded=0;orthogonalLoop=1;jettySize=auto;html=1;" parent="WIyWlLk6GJQsqaUBKTNV-1" source="viFl9zNwuLz6WSdBjjEk-56" target="viFl9zNwuLz6WSdBjjEk-60" edge="1">
          <mxGeometry relative="1" as="geometry" />
        </mxCell>
        <mxCell id="viFl9zNwuLz6WSdBjjEk-56" value="Widget label:&lt;br&gt;&quot;Enter age&quot;" style="shape=parallelogram;perimeter=parallelogramPerimeter;whiteSpace=wrap;html=1;fixedSize=1;fillColor=#1ba1e2;strokeColor=#006EAF;fontColor=#ffffff;" parent="WIyWlLk6GJQsqaUBKTNV-1" vertex="1">
          <mxGeometry x="-620" y="108.75" width="120" height="60" as="geometry" />
        </mxCell>
        <mxCell id="viFl9zNwuLz6WSdBjjEk-58" value="age.get()" style="rounded=0;whiteSpace=wrap;html=1;fillColor=#d5e8d4;strokeColor=#82b366;" parent="WIyWlLk6GJQsqaUBKTNV-1" vertex="1">
          <mxGeometry x="-740" y="317.5" width="120" height="60" as="geometry" />
        </mxCell>
        <mxCell id="viFl9zNwuLz6WSdBjjEk-62" style="edgeStyle=orthogonalEdgeStyle;rounded=0;orthogonalLoop=1;jettySize=auto;html=1;" parent="WIyWlLk6GJQsqaUBKTNV-1" source="viFl9zNwuLz6WSdBjjEk-60" target="viFl9zNwuLz6WSdBjjEk-63" edge="1">
          <mxGeometry relative="1" as="geometry">
            <mxPoint x="-340" y="138.75" as="targetPoint" />
          </mxGeometry>
        </mxCell>
        <mxCell id="viFl9zNwuLz6WSdBjjEk-60" value="Widget (entrybox)" style="shape=parallelogram;perimeter=parallelogramPerimeter;whiteSpace=wrap;html=1;fixedSize=1;fillColor=#dae8fc;strokeColor=#6c8ebf;" parent="WIyWlLk6GJQsqaUBKTNV-1" vertex="1">
          <mxGeometry x="-480" y="108.75" width="120" height="60" as="geometry" />
        </mxCell>
        <mxCell id="viFl9zNwuLz6WSdBjjEk-66" value="True" style="edgeStyle=orthogonalEdgeStyle;rounded=0;orthogonalLoop=1;jettySize=auto;html=1;" parent="WIyWlLk6GJQsqaUBKTNV-1" source="viFl9zNwuLz6WSdBjjEk-63" target="viFl9zNwuLz6WSdBjjEk-65" edge="1">
          <mxGeometry relative="1" as="geometry" />
        </mxCell>
        <mxCell id="viFl9zNwuLz6WSdBjjEk-63" value="Widget (button)" style="shape=parallelogram;perimeter=parallelogramPerimeter;whiteSpace=wrap;html=1;fixedSize=1;fillColor=#dae8fc;strokeColor=#6c8ebf;" parent="WIyWlLk6GJQsqaUBKTNV-1" vertex="1">
          <mxGeometry x="-330" y="108.75" width="120" height="60" as="geometry" />
        </mxCell>
        <mxCell id="viFl9zNwuLz6WSdBjjEk-65" value="Run age function&lt;br&gt;if press button" style="rounded=0;whiteSpace=wrap;html=1;fillColor=#d5e8d4;strokeColor=#82b366;" parent="WIyWlLk6GJQsqaUBKTNV-1" vertex="1">
          <mxGeometry x="-330" y="210" width="120" height="60" as="geometry" />
        </mxCell>
        <mxCell id="viFl9zNwuLz6WSdBjjEk-73" style="edgeStyle=orthogonalEdgeStyle;rounded=0;orthogonalLoop=1;jettySize=auto;html=1;entryX=0.5;entryY=0;entryDx=0;entryDy=0;" parent="WIyWlLk6GJQsqaUBKTNV-1" source="viFl9zNwuLz6WSdBjjEk-68" target="viFl9zNwuLz6WSdBjjEk-70" edge="1">
          <mxGeometry relative="1" as="geometry" />
        </mxCell>
        <mxCell id="viFl9zNwuLz6WSdBjjEk-68" value="Messagebox:&lt;br&gt;&quot;Age must be between&lt;br&gt;13-18&quot;" style="shape=parallelogram;perimeter=parallelogramPerimeter;whiteSpace=wrap;html=1;fixedSize=1;fillColor=#1ba1e2;strokeColor=#006EAF;fontColor=#ffffff;" parent="WIyWlLk6GJQsqaUBKTNV-1" vertex="1">
          <mxGeometry x="-571" y="421.25" width="120" height="60" as="geometry" />
        </mxCell>
        <mxCell id="viFl9zNwuLz6WSdBjjEk-70" value="end" style="rounded=1;whiteSpace=wrap;html=1;fillColor=#fff2cc;strokeColor=#d6b656;" parent="WIyWlLk6GJQsqaUBKTNV-1" vertex="1">
          <mxGeometry x="-571" y="512.5" width="120" height="37.5" as="geometry" />
        </mxCell>
        <mxCell id="viFl9zNwuLz6WSdBjjEk-81" style="edgeStyle=orthogonalEdgeStyle;rounded=0;orthogonalLoop=1;jettySize=auto;html=1;" parent="WIyWlLk6GJQsqaUBKTNV-1" source="viFl9zNwuLz6WSdBjjEk-75" target="viFl9zNwuLz6WSdBjjEk-80" edge="1">
          <mxGeometry relative="1" as="geometry" />
        </mxCell>
        <mxCell id="viFl9zNwuLz6WSdBjjEk-75" value="Start&lt;br&gt;(frame_1(Login))" style="rounded=1;whiteSpace=wrap;html=1;fillColor=#fff2cc;strokeColor=#d6b656;" parent="WIyWlLk6GJQsqaUBKTNV-1" vertex="1">
          <mxGeometry x="-110" y="108.75" width="120" height="37.5" as="geometry" />
        </mxCell>
        <mxCell id="viFl9zNwuLz6WSdBjjEk-78" style="edgeStyle=orthogonalEdgeStyle;rounded=0;orthogonalLoop=1;jettySize=auto;html=1;" parent="WIyWlLk6GJQsqaUBKTNV-1" source="viFl9zNwuLz6WSdBjjEk-76" target="viFl9zNwuLz6WSdBjjEk-56" edge="1">
          <mxGeometry relative="1" as="geometry" />
        </mxCell>
        <mxCell id="viFl9zNwuLz6WSdBjjEk-76" value="Create frame(window)" style="rounded=0;whiteSpace=wrap;html=1;fillColor=#d5e8d4;strokeColor=#82b366;" parent="WIyWlLk6GJQsqaUBKTNV-1" vertex="1">
          <mxGeometry x="-760" y="108.75" width="120" height="60" as="geometry" />
        </mxCell>
        <mxCell id="viFl9zNwuLz6WSdBjjEk-84" style="edgeStyle=orthogonalEdgeStyle;rounded=0;orthogonalLoop=1;jettySize=auto;html=1;" parent="WIyWlLk6GJQsqaUBKTNV-1" source="viFl9zNwuLz6WSdBjjEk-79" target="viFl9zNwuLz6WSdBjjEk-83" edge="1">
          <mxGeometry relative="1" as="geometry" />
        </mxCell>
        <mxCell id="viFl9zNwuLz6WSdBjjEk-79" value="Widget label:&lt;br&gt;&quot;Welcome to&lt;br&gt;BDSC MENU APP&quot;" style="shape=parallelogram;perimeter=parallelogramPerimeter;whiteSpace=wrap;html=1;fixedSize=1;fillColor=#1ba1e2;strokeColor=#006EAF;fontColor=#ffffff;" parent="WIyWlLk6GJQsqaUBKTNV-1" vertex="1">
          <mxGeometry x="210" y="97.5" width="150" height="60" as="geometry" />
        </mxCell>
        <mxCell id="viFl9zNwuLz6WSdBjjEk-82" style="edgeStyle=orthogonalEdgeStyle;rounded=0;orthogonalLoop=1;jettySize=auto;html=1;" parent="WIyWlLk6GJQsqaUBKTNV-1" source="viFl9zNwuLz6WSdBjjEk-80" target="viFl9zNwuLz6WSdBjjEk-79" edge="1">
          <mxGeometry relative="1" as="geometry" />
        </mxCell>
        <mxCell id="viFl9zNwuLz6WSdBjjEk-80" value="Create frame(window)" style="rounded=0;whiteSpace=wrap;html=1;fillColor=#d5e8d4;strokeColor=#82b366;" parent="WIyWlLk6GJQsqaUBKTNV-1" vertex="1">
          <mxGeometry x="50" y="97.5" width="120" height="60" as="geometry" />
        </mxCell>
        <mxCell id="viFl9zNwuLz6WSdBjjEk-86" style="edgeStyle=orthogonalEdgeStyle;rounded=0;orthogonalLoop=1;jettySize=auto;html=1;entryX=0;entryY=0.5;entryDx=0;entryDy=0;" parent="WIyWlLk6GJQsqaUBKTNV-1" source="viFl9zNwuLz6WSdBjjEk-83" target="viFl9zNwuLz6WSdBjjEk-85" edge="1">
          <mxGeometry relative="1" as="geometry" />
        </mxCell>
        <mxCell id="viFl9zNwuLz6WSdBjjEk-83" value="&lt;br&gt;Widget entrybox&lt;br&gt;(entry_name)&lt;br&gt;" style="shape=parallelogram;perimeter=parallelogramPerimeter;whiteSpace=wrap;html=1;fixedSize=1;fillColor=#dae8fc;strokeColor=#6c8ebf;" parent="WIyWlLk6GJQsqaUBKTNV-1" vertex="1">
          <mxGeometry x="380" y="97.5" width="150" height="60" as="geometry" />
        </mxCell>
        <mxCell id="viFl9zNwuLz6WSdBjjEk-88" style="edgeStyle=orthogonalEdgeStyle;rounded=0;orthogonalLoop=1;jettySize=auto;html=1;entryX=0.46;entryY=0.014;entryDx=0;entryDy=0;entryPerimeter=0;" parent="WIyWlLk6GJQsqaUBKTNV-1" source="viFl9zNwuLz6WSdBjjEk-85" target="viFl9zNwuLz6WSdBjjEk-87" edge="1">
          <mxGeometry relative="1" as="geometry">
            <Array as="points">
              <mxPoint x="625" y="170" />
              <mxPoint x="-49" y="170" />
            </Array>
          </mxGeometry>
        </mxCell>
        <mxCell id="viFl9zNwuLz6WSdBjjEk-85" value="&lt;br&gt;Widget entrybox&lt;br&gt;(entry_password)" style="shape=parallelogram;perimeter=parallelogramPerimeter;whiteSpace=wrap;html=1;fixedSize=1;fillColor=#dae8fc;strokeColor=#6c8ebf;" parent="WIyWlLk6GJQsqaUBKTNV-1" vertex="1">
          <mxGeometry x="550" y="97.5" width="150" height="60" as="geometry" />
        </mxCell>
        <mxCell id="viFl9zNwuLz6WSdBjjEk-89" value="False" style="edgeStyle=orthogonalEdgeStyle;rounded=0;orthogonalLoop=1;jettySize=auto;html=1;" parent="WIyWlLk6GJQsqaUBKTNV-1" source="viFl9zNwuLz6WSdBjjEk-87" target="viFl9zNwuLz6WSdBjjEk-90" edge="1">
          <mxGeometry relative="1" as="geometry">
            <mxPoint x="60" y="220" as="targetPoint" />
          </mxGeometry>
        </mxCell>
        <mxCell id="viFl9zNwuLz6WSdBjjEk-93" value="True" style="edgeStyle=orthogonalEdgeStyle;rounded=0;orthogonalLoop=1;jettySize=auto;html=1;entryX=0.5;entryY=0;entryDx=0;entryDy=0;" parent="WIyWlLk6GJQsqaUBKTNV-1" source="viFl9zNwuLz6WSdBjjEk-87" target="viFl9zNwuLz6WSdBjjEk-94" edge="1">
          <mxGeometry relative="1" as="geometry">
            <mxPoint x="-43" y="300" as="targetPoint" />
          </mxGeometry>
        </mxCell>
        <mxCell id="viFl9zNwuLz6WSdBjjEk-87" value="Widget button(Add account)" style="shape=parallelogram;perimeter=parallelogramPerimeter;whiteSpace=wrap;html=1;fixedSize=1;fillColor=#dae8fc;strokeColor=#6c8ebf;" parent="WIyWlLk6GJQsqaUBKTNV-1" vertex="1">
          <mxGeometry x="-118" y="190" width="150" height="60" as="geometry" />
        </mxCell>
        <mxCell id="viFl9zNwuLz6WSdBjjEk-92" value="False" style="edgeStyle=orthogonalEdgeStyle;rounded=0;orthogonalLoop=1;jettySize=auto;html=1;" parent="WIyWlLk6GJQsqaUBKTNV-1" source="viFl9zNwuLz6WSdBjjEk-90" target="viFl9zNwuLz6WSdBjjEk-91" edge="1">
          <mxGeometry relative="1" as="geometry" />
        </mxCell>
        <mxCell id="viFl9zNwuLz6WSdBjjEk-101" value="True" style="edgeStyle=orthogonalEdgeStyle;rounded=0;orthogonalLoop=1;jettySize=auto;html=1;" parent="WIyWlLk6GJQsqaUBKTNV-1" source="viFl9zNwuLz6WSdBjjEk-90" target="viFl9zNwuLz6WSdBjjEk-99" edge="1">
          <mxGeometry relative="1" as="geometry" />
        </mxCell>
        <mxCell id="viFl9zNwuLz6WSdBjjEk-90" value="Widget button(Login)" style="shape=parallelogram;perimeter=parallelogramPerimeter;whiteSpace=wrap;html=1;fixedSize=1;fillColor=#dae8fc;strokeColor=#6c8ebf;" parent="WIyWlLk6GJQsqaUBKTNV-1" vertex="1">
          <mxGeometry x="70" y="190" width="150" height="60" as="geometry" />
        </mxCell>
        <mxCell id="viFl9zNwuLz6WSdBjjEk-102" value="True" style="edgeStyle=orthogonalEdgeStyle;rounded=0;orthogonalLoop=1;jettySize=auto;html=1;" parent="WIyWlLk6GJQsqaUBKTNV-1" source="viFl9zNwuLz6WSdBjjEk-91" target="viFl9zNwuLz6WSdBjjEk-100" edge="1">
          <mxGeometry relative="1" as="geometry">
            <Array as="points">
              <mxPoint x="320" y="260" />
              <mxPoint x="320" y="260" />
            </Array>
          </mxGeometry>
        </mxCell>
        <mxCell id="viFl9zNwuLz6WSdBjjEk-91" value="Widget button(remove&lt;br&gt;account)" style="shape=parallelogram;perimeter=parallelogramPerimeter;whiteSpace=wrap;html=1;fixedSize=1;fillColor=#dae8fc;strokeColor=#6c8ebf;" parent="WIyWlLk6GJQsqaUBKTNV-1" vertex="1">
          <mxGeometry x="245" y="190" width="150" height="60" as="geometry" />
        </mxCell>
        <mxCell id="viFl9zNwuLz6WSdBjjEk-104" style="edgeStyle=orthogonalEdgeStyle;rounded=0;orthogonalLoop=1;jettySize=auto;html=1;" parent="WIyWlLk6GJQsqaUBKTNV-1" source="viFl9zNwuLz6WSdBjjEk-94" target="viFl9zNwuLz6WSdBjjEk-103" edge="1">
          <mxGeometry relative="1" as="geometry" />
        </mxCell>
        <mxCell id="viFl9zNwuLz6WSdBjjEk-94" value="Run add_acc&amp;nbsp;&lt;br&gt;function" style="rounded=0;whiteSpace=wrap;html=1;fillColor=#d5e8d4;strokeColor=#82b366;" parent="WIyWlLk6GJQsqaUBKTNV-1" vertex="1">
          <mxGeometry x="-103" y="290" width="120" height="60" as="geometry" />
        </mxCell>
        <mxCell id="viFl9zNwuLz6WSdBjjEk-106" style="edgeStyle=orthogonalEdgeStyle;rounded=0;orthogonalLoop=1;jettySize=auto;html=1;entryX=0.5;entryY=0;entryDx=0;entryDy=0;" parent="WIyWlLk6GJQsqaUBKTNV-1" source="viFl9zNwuLz6WSdBjjEk-99" target="viFl9zNwuLz6WSdBjjEk-105" edge="1">
          <mxGeometry relative="1" as="geometry" />
        </mxCell>
        <mxCell id="viFl9zNwuLz6WSdBjjEk-99" value="Run the login function" style="rounded=0;whiteSpace=wrap;html=1;fillColor=#d5e8d4;strokeColor=#82b366;" parent="WIyWlLk6GJQsqaUBKTNV-1" vertex="1">
          <mxGeometry x="85" y="290" width="120" height="60" as="geometry" />
        </mxCell>
        <mxCell id="viFl9zNwuLz6WSdBjjEk-108" style="edgeStyle=orthogonalEdgeStyle;rounded=0;orthogonalLoop=1;jettySize=auto;html=1;" parent="WIyWlLk6GJQsqaUBKTNV-1" source="viFl9zNwuLz6WSdBjjEk-100" target="viFl9zNwuLz6WSdBjjEk-107" edge="1">
          <mxGeometry relative="1" as="geometry" />
        </mxCell>
        <mxCell id="viFl9zNwuLz6WSdBjjEk-100" value="Run the reset function" style="rounded=0;whiteSpace=wrap;html=1;fillColor=#d5e8d4;strokeColor=#82b366;" parent="WIyWlLk6GJQsqaUBKTNV-1" vertex="1">
          <mxGeometry x="260" y="290" width="120" height="60" as="geometry" />
        </mxCell>
        <mxCell id="viFl9zNwuLz6WSdBjjEk-103" value="End" style="rounded=1;whiteSpace=wrap;html=1;fillColor=#fff2cc;strokeColor=#d6b656;" parent="WIyWlLk6GJQsqaUBKTNV-1" vertex="1">
          <mxGeometry x="-103" y="380" width="120" height="30" as="geometry" />
        </mxCell>
        <mxCell id="viFl9zNwuLz6WSdBjjEk-105" value="End" style="rounded=1;whiteSpace=wrap;html=1;fillColor=#fff2cc;strokeColor=#d6b656;" parent="WIyWlLk6GJQsqaUBKTNV-1" vertex="1">
          <mxGeometry x="85" y="378.75" width="120" height="27.5" as="geometry" />
        </mxCell>
        <mxCell id="viFl9zNwuLz6WSdBjjEk-107" value="End" style="rounded=1;whiteSpace=wrap;html=1;fillColor=#fff2cc;strokeColor=#d6b656;" parent="WIyWlLk6GJQsqaUBKTNV-1" vertex="1">
          <mxGeometry x="260" y="372.5" width="120" height="27.5" as="geometry" />
        </mxCell>
        <mxCell id="viFl9zNwuLz6WSdBjjEk-110" style="edgeStyle=orthogonalEdgeStyle;rounded=0;orthogonalLoop=1;jettySize=auto;html=1;" parent="WIyWlLk6GJQsqaUBKTNV-1" source="viFl9zNwuLz6WSdBjjEk-109" target="viFl9zNwuLz6WSdBjjEk-111" edge="1">
          <mxGeometry relative="1" as="geometry">
            <mxPoint x="20" y="790" as="targetPoint" />
          </mxGeometry>
        </mxCell>
        <mxCell id="viFl9zNwuLz6WSdBjjEk-109" value="Start&lt;br&gt;(add_acc function)" style="rounded=1;whiteSpace=wrap;html=1;fillColor=#fff2cc;strokeColor=#d6b656;" parent="WIyWlLk6GJQsqaUBKTNV-1" vertex="1">
          <mxGeometry x="-130" y="771.25" width="120" height="37.5" as="geometry" />
        </mxCell>
        <mxCell id="viFl9zNwuLz6WSdBjjEk-114" style="edgeStyle=orthogonalEdgeStyle;rounded=0;orthogonalLoop=1;jettySize=auto;html=1;" parent="WIyWlLk6GJQsqaUBKTNV-1" source="viFl9zNwuLz6WSdBjjEk-111" target="viFl9zNwuLz6WSdBjjEk-113" edge="1">
          <mxGeometry relative="1" as="geometry" />
        </mxCell>
        <mxCell id="viFl9zNwuLz6WSdBjjEk-111" value="entry_name and&lt;br&gt;entry password.get()&lt;br&gt;Open txt file." style="rounded=0;whiteSpace=wrap;html=1;fillColor=#d5e8d4;strokeColor=#82b366;" parent="WIyWlLk6GJQsqaUBKTNV-1" vertex="1">
          <mxGeometry x="30" y="760" width="120" height="60" as="geometry" />
        </mxCell>
        <mxCell id="viFl9zNwuLz6WSdBjjEk-116" style="edgeStyle=orthogonalEdgeStyle;rounded=0;orthogonalLoop=1;jettySize=auto;html=1;" parent="WIyWlLk6GJQsqaUBKTNV-1" source="viFl9zNwuLz6WSdBjjEk-113" target="viFl9zNwuLz6WSdBjjEk-115" edge="1">
          <mxGeometry relative="1" as="geometry" />
        </mxCell>
        <mxCell id="viFl9zNwuLz6WSdBjjEk-113" value="Store entry_name&lt;br&gt;and password into&amp;nbsp;&lt;br&gt;txt file." style="rounded=0;whiteSpace=wrap;html=1;fillColor=#d5e8d4;strokeColor=#82b366;" parent="WIyWlLk6GJQsqaUBKTNV-1" vertex="1">
          <mxGeometry x="180" y="760" width="120" height="60" as="geometry" />
        </mxCell>
        <mxCell id="viFl9zNwuLz6WSdBjjEk-115" value="End" style="rounded=1;whiteSpace=wrap;html=1;fillColor=#fff2cc;strokeColor=#d6b656;" parent="WIyWlLk6GJQsqaUBKTNV-1" vertex="1">
          <mxGeometry x="323" y="775" width="120" height="30" as="geometry" />
        </mxCell>
        <mxCell id="viFl9zNwuLz6WSdBjjEk-117" style="edgeStyle=orthogonalEdgeStyle;rounded=0;orthogonalLoop=1;jettySize=auto;html=1;" parent="WIyWlLk6GJQsqaUBKTNV-1" source="viFl9zNwuLz6WSdBjjEk-118" target="viFl9zNwuLz6WSdBjjEk-120" edge="1">
          <mxGeometry relative="1" as="geometry">
            <mxPoint x="10" y="495" as="targetPoint" />
          </mxGeometry>
        </mxCell>
        <mxCell id="viFl9zNwuLz6WSdBjjEk-118" value="Start&lt;br&gt;(Login function)" style="rounded=1;whiteSpace=wrap;html=1;fillColor=#fff2cc;strokeColor=#d6b656;" parent="WIyWlLk6GJQsqaUBKTNV-1" vertex="1">
          <mxGeometry x="-140" y="476.25" width="120" height="37.5" as="geometry" />
        </mxCell>
        <mxCell id="viFl9zNwuLz6WSdBjjEk-119" style="edgeStyle=orthogonalEdgeStyle;rounded=0;orthogonalLoop=1;jettySize=auto;html=1;entryX=0;entryY=0.5;entryDx=0;entryDy=0;" parent="WIyWlLk6GJQsqaUBKTNV-1" source="viFl9zNwuLz6WSdBjjEk-120" target="viFl9zNwuLz6WSdBjjEk-124" edge="1">
          <mxGeometry relative="1" as="geometry">
            <mxPoint x="170" y="495" as="targetPoint" />
          </mxGeometry>
        </mxCell>
        <mxCell id="viFl9zNwuLz6WSdBjjEk-120" value="entry_name and&lt;br&gt;entry password.get()&lt;br&gt;Open txt file." style="rounded=0;whiteSpace=wrap;html=1;fillColor=#d5e8d4;strokeColor=#82b366;" parent="WIyWlLk6GJQsqaUBKTNV-1" vertex="1">
          <mxGeometry x="20" y="465" width="120" height="60" as="geometry" />
        </mxCell>
        <mxCell id="viFl9zNwuLz6WSdBjjEk-123" value="End" style="rounded=1;whiteSpace=wrap;html=1;fillColor=#fff2cc;strokeColor=#d6b656;" parent="WIyWlLk6GJQsqaUBKTNV-1" vertex="1">
          <mxGeometry x="330" y="555" width="120" height="30" as="geometry" />
        </mxCell>
        <mxCell id="viFl9zNwuLz6WSdBjjEk-127" value="True" style="edgeStyle=orthogonalEdgeStyle;rounded=0;orthogonalLoop=1;jettySize=auto;html=1;" parent="WIyWlLk6GJQsqaUBKTNV-1" source="viFl9zNwuLz6WSdBjjEk-124" target="viFl9zNwuLz6WSdBjjEk-126" edge="1">
          <mxGeometry relative="1" as="geometry" />
        </mxCell>
        <mxCell id="viFl9zNwuLz6WSdBjjEk-132" value="False" style="edgeStyle=orthogonalEdgeStyle;rounded=0;orthogonalLoop=1;jettySize=auto;html=1;entryX=0.5;entryY=0;entryDx=0;entryDy=0;" parent="WIyWlLk6GJQsqaUBKTNV-1" source="viFl9zNwuLz6WSdBjjEk-124" target="viFl9zNwuLz6WSdBjjEk-131" edge="1">
          <mxGeometry relative="1" as="geometry" />
        </mxCell>
        <mxCell id="viFl9zNwuLz6WSdBjjEk-124" value="If entries in&amp;nbsp;&lt;br&gt;txt file" style="rhombus;whiteSpace=wrap;html=1;fillColor=#f8cecc;strokeColor=#b85450;" parent="WIyWlLk6GJQsqaUBKTNV-1" vertex="1">
          <mxGeometry x="175" y="450" width="110" height="90" as="geometry" />
        </mxCell>
        <mxCell id="viFl9zNwuLz6WSdBjjEk-128" style="edgeStyle=orthogonalEdgeStyle;rounded=0;orthogonalLoop=1;jettySize=auto;html=1;entryX=0.5;entryY=0;entryDx=0;entryDy=0;" parent="WIyWlLk6GJQsqaUBKTNV-1" source="viFl9zNwuLz6WSdBjjEk-126" target="viFl9zNwuLz6WSdBjjEk-123" edge="1">
          <mxGeometry relative="1" as="geometry" />
        </mxCell>
        <mxCell id="viFl9zNwuLz6WSdBjjEk-126" value="Run frame_2&amp;nbsp;&lt;br&gt;function" style="rounded=0;whiteSpace=wrap;html=1;fillColor=#d5e8d4;strokeColor=#82b366;" parent="WIyWlLk6GJQsqaUBKTNV-1" vertex="1">
          <mxGeometry x="330" y="465" width="120" height="60" as="geometry" />
        </mxCell>
        <mxCell id="viFl9zNwuLz6WSdBjjEk-134" style="edgeStyle=orthogonalEdgeStyle;rounded=0;orthogonalLoop=1;jettySize=auto;html=1;entryX=0.5;entryY=0;entryDx=0;entryDy=0;" parent="WIyWlLk6GJQsqaUBKTNV-1" source="viFl9zNwuLz6WSdBjjEk-131" target="viFl9zNwuLz6WSdBjjEk-133" edge="1">
          <mxGeometry relative="1" as="geometry" />
        </mxCell>
        <mxCell id="viFl9zNwuLz6WSdBjjEk-131" value="Messagebox:&lt;br&gt;&quot;Incorrect &lt;br&gt;password&quot;" style="shape=parallelogram;perimeter=parallelogramPerimeter;whiteSpace=wrap;html=1;fixedSize=1;fillColor=#1ba1e2;strokeColor=#006EAF;fontColor=#ffffff;" parent="WIyWlLk6GJQsqaUBKTNV-1" vertex="1">
          <mxGeometry x="170" y="575" width="120" height="60" as="geometry" />
        </mxCell>
        <mxCell id="viFl9zNwuLz6WSdBjjEk-133" value="End" style="rounded=1;whiteSpace=wrap;html=1;fillColor=#fff2cc;strokeColor=#d6b656;" parent="WIyWlLk6GJQsqaUBKTNV-1" vertex="1">
          <mxGeometry x="170" y="665" width="120" height="30" as="geometry" />
        </mxCell>
        <mxCell id="viFl9zNwuLz6WSdBjjEk-147" style="edgeStyle=orthogonalEdgeStyle;rounded=0;orthogonalLoop=1;jettySize=auto;html=1;" parent="WIyWlLk6GJQsqaUBKTNV-1" source="viFl9zNwuLz6WSdBjjEk-148" target="viFl9zNwuLz6WSdBjjEk-150" edge="1">
          <mxGeometry relative="1" as="geometry">
            <mxPoint x="560" y="321.25" as="targetPoint" />
          </mxGeometry>
        </mxCell>
        <mxCell id="viFl9zNwuLz6WSdBjjEk-148" value="Start&lt;br&gt;(reset function)" style="rounded=1;whiteSpace=wrap;html=1;fillColor=#fff2cc;strokeColor=#d6b656;" parent="WIyWlLk6GJQsqaUBKTNV-1" vertex="1">
          <mxGeometry x="410" y="302.5" width="120" height="37.5" as="geometry" />
        </mxCell>
        <mxCell id="viFl9zNwuLz6WSdBjjEk-149" style="edgeStyle=orthogonalEdgeStyle;rounded=0;orthogonalLoop=1;jettySize=auto;html=1;entryX=0;entryY=0.5;entryDx=0;entryDy=0;" parent="WIyWlLk6GJQsqaUBKTNV-1" source="viFl9zNwuLz6WSdBjjEk-150" target="viFl9zNwuLz6WSdBjjEk-154" edge="1">
          <mxGeometry relative="1" as="geometry">
            <mxPoint x="720" y="321.25" as="targetPoint" />
          </mxGeometry>
        </mxCell>
        <mxCell id="viFl9zNwuLz6WSdBjjEk-150" value="entry_name and&lt;br&gt;entry password.get()&lt;br&gt;Open txt file." style="rounded=0;whiteSpace=wrap;html=1;fillColor=#d5e8d4;strokeColor=#82b366;" parent="WIyWlLk6GJQsqaUBKTNV-1" vertex="1">
          <mxGeometry x="570" y="291.25" width="120" height="60" as="geometry" />
        </mxCell>
        <mxCell id="viFl9zNwuLz6WSdBjjEk-151" value="End" style="rounded=1;whiteSpace=wrap;html=1;fillColor=#fff2cc;strokeColor=#d6b656;" parent="WIyWlLk6GJQsqaUBKTNV-1" vertex="1">
          <mxGeometry x="880" y="381.25" width="120" height="30" as="geometry" />
        </mxCell>
        <mxCell id="viFl9zNwuLz6WSdBjjEk-152" value="True" style="edgeStyle=orthogonalEdgeStyle;rounded=0;orthogonalLoop=1;jettySize=auto;html=1;" parent="WIyWlLk6GJQsqaUBKTNV-1" target="viFl9zNwuLz6WSdBjjEk-156" edge="1">
          <mxGeometry relative="1" as="geometry">
            <mxPoint x="835" y="321.25" as="sourcePoint" />
          </mxGeometry>
        </mxCell>
        <mxCell id="viFl9zNwuLz6WSdBjjEk-153" value="False" style="edgeStyle=orthogonalEdgeStyle;rounded=0;orthogonalLoop=1;jettySize=auto;html=1;entryX=0.5;entryY=0;entryDx=0;entryDy=0;" parent="WIyWlLk6GJQsqaUBKTNV-1" source="viFl9zNwuLz6WSdBjjEk-154" target="viFl9zNwuLz6WSdBjjEk-158" edge="1">
          <mxGeometry relative="1" as="geometry" />
        </mxCell>
        <mxCell id="viFl9zNwuLz6WSdBjjEk-154" value="If entries in&amp;nbsp;&lt;br&gt;txt file" style="rhombus;whiteSpace=wrap;html=1;fillColor=#f8cecc;strokeColor=#b85450;" parent="WIyWlLk6GJQsqaUBKTNV-1" vertex="1">
          <mxGeometry x="725" y="276.25" width="110" height="90" as="geometry" />
        </mxCell>
        <mxCell id="viFl9zNwuLz6WSdBjjEk-155" style="edgeStyle=orthogonalEdgeStyle;rounded=0;orthogonalLoop=1;jettySize=auto;html=1;entryX=0.5;entryY=0;entryDx=0;entryDy=0;" parent="WIyWlLk6GJQsqaUBKTNV-1" source="viFl9zNwuLz6WSdBjjEk-156" target="viFl9zNwuLz6WSdBjjEk-151" edge="1">
          <mxGeometry relative="1" as="geometry" />
        </mxCell>
        <mxCell id="viFl9zNwuLz6WSdBjjEk-156" value="Erase txt file" style="rounded=0;whiteSpace=wrap;html=1;fillColor=#d5e8d4;strokeColor=#82b366;" parent="WIyWlLk6GJQsqaUBKTNV-1" vertex="1">
          <mxGeometry x="880" y="291.25" width="120" height="60" as="geometry" />
        </mxCell>
        <mxCell id="viFl9zNwuLz6WSdBjjEk-157" style="edgeStyle=orthogonalEdgeStyle;rounded=0;orthogonalLoop=1;jettySize=auto;html=1;entryX=0.5;entryY=0;entryDx=0;entryDy=0;" parent="WIyWlLk6GJQsqaUBKTNV-1" source="viFl9zNwuLz6WSdBjjEk-158" target="viFl9zNwuLz6WSdBjjEk-159" edge="1">
          <mxGeometry relative="1" as="geometry" />
        </mxCell>
        <mxCell id="viFl9zNwuLz6WSdBjjEk-158" value="Messagebox:&lt;br&gt;&quot;Incorrect &lt;br&gt;password&quot;" style="shape=parallelogram;perimeter=parallelogramPerimeter;whiteSpace=wrap;html=1;fixedSize=1;fillColor=#1ba1e2;strokeColor=#006EAF;fontColor=#ffffff;" parent="WIyWlLk6GJQsqaUBKTNV-1" vertex="1">
          <mxGeometry x="720" y="406.25" width="120" height="60" as="geometry" />
        </mxCell>
        <mxCell id="viFl9zNwuLz6WSdBjjEk-159" value="End" style="rounded=1;whiteSpace=wrap;html=1;fillColor=#fff2cc;strokeColor=#d6b656;" parent="WIyWlLk6GJQsqaUBKTNV-1" vertex="1">
          <mxGeometry x="720" y="496.25" width="120" height="30" as="geometry" />
        </mxCell>
        <mxCell id="4vMxq4SAuJxIeTTvpFit-45" style="edgeStyle=orthogonalEdgeStyle;rounded=0;orthogonalLoop=1;jettySize=auto;html=1;entryX=0;entryY=0.5;entryDx=0;entryDy=0;" parent="WIyWlLk6GJQsqaUBKTNV-1" source="4vMxq4SAuJxIeTTvpFit-0" target="4vMxq4SAuJxIeTTvpFit-8" edge="1">
          <mxGeometry relative="1" as="geometry" />
        </mxCell>
        <mxCell id="4vMxq4SAuJxIeTTvpFit-0" value="Start&lt;br&gt;(Frame_2(Menu))" style="rounded=1;whiteSpace=wrap;html=1;fillColor=#fff2cc;strokeColor=#d6b656;" parent="WIyWlLk6GJQsqaUBKTNV-1" vertex="1">
          <mxGeometry x="1045" y="131.25" width="120" height="37.5" as="geometry" />
        </mxCell>
        <mxCell id="4vMxq4SAuJxIeTTvpFit-15" style="edgeStyle=orthogonalEdgeStyle;rounded=0;orthogonalLoop=1;jettySize=auto;html=1;" parent="WIyWlLk6GJQsqaUBKTNV-1" source="4vMxq4SAuJxIeTTvpFit-1" target="4vMxq4SAuJxIeTTvpFit-13" edge="1">
          <mxGeometry relative="1" as="geometry" />
        </mxCell>
        <mxCell id="4vMxq4SAuJxIeTTvpFit-1" value="&lt;br&gt;Widget combo box&lt;br&gt;(Drinks)" style="shape=parallelogram;perimeter=parallelogramPerimeter;whiteSpace=wrap;html=1;fixedSize=1;fillColor=#dae8fc;strokeColor=#6c8ebf;" parent="WIyWlLk6GJQsqaUBKTNV-1" vertex="1">
          <mxGeometry x="1545" y="120" width="150" height="60" as="geometry" />
        </mxCell>
        <mxCell id="4vMxq4SAuJxIeTTvpFit-33" style="edgeStyle=orthogonalEdgeStyle;rounded=0;orthogonalLoop=1;jettySize=auto;html=1;entryX=0;entryY=0.5;entryDx=0;entryDy=0;" parent="WIyWlLk6GJQsqaUBKTNV-1" source="4vMxq4SAuJxIeTTvpFit-5" target="4vMxq4SAuJxIeTTvpFit-30" edge="1">
          <mxGeometry relative="1" as="geometry" />
        </mxCell>
        <mxCell id="4vMxq4SAuJxIeTTvpFit-5" value="&lt;br&gt;Widget combo box&lt;br&gt;(Lunch)" style="shape=parallelogram;perimeter=parallelogramPerimeter;whiteSpace=wrap;html=1;fixedSize=1;fillColor=#dae8fc;strokeColor=#6c8ebf;" parent="WIyWlLk6GJQsqaUBKTNV-1" vertex="1">
          <mxGeometry x="1895" y="120" width="150" height="60" as="geometry" />
        </mxCell>
        <mxCell id="4vMxq4SAuJxIeTTvpFit-35" style="edgeStyle=orthogonalEdgeStyle;rounded=0;orthogonalLoop=1;jettySize=auto;html=1;entryX=0;entryY=0.25;entryDx=0;entryDy=0;" parent="WIyWlLk6GJQsqaUBKTNV-1" source="4vMxq4SAuJxIeTTvpFit-6" target="4vMxq4SAuJxIeTTvpFit-31" edge="1">
          <mxGeometry relative="1" as="geometry">
            <Array as="points">
              <mxPoint x="2325" y="195" />
              <mxPoint x="1200" y="195" />
              <mxPoint x="1200" y="305" />
            </Array>
          </mxGeometry>
        </mxCell>
        <mxCell id="4vMxq4SAuJxIeTTvpFit-6" value="&lt;br&gt;Widget combo box&lt;br&gt;(Snacks)" style="shape=parallelogram;perimeter=parallelogramPerimeter;whiteSpace=wrap;html=1;fixedSize=1;fillColor=#dae8fc;strokeColor=#6c8ebf;" parent="WIyWlLk6GJQsqaUBKTNV-1" vertex="1">
          <mxGeometry x="2250" y="120" width="150" height="60" as="geometry" />
        </mxCell>
        <mxCell id="z5xTHiLA5cGySQYqo-3w-1" style="edgeStyle=orthogonalEdgeStyle;rounded=0;orthogonalLoop=1;jettySize=auto;html=1;entryX=0;entryY=0.5;entryDx=0;entryDy=0;" parent="WIyWlLk6GJQsqaUBKTNV-1" source="4vMxq4SAuJxIeTTvpFit-8" target="4vMxq4SAuJxIeTTvpFit-9" edge="1">
          <mxGeometry relative="1" as="geometry" />
        </mxCell>
        <mxCell id="4vMxq4SAuJxIeTTvpFit-8" value="Create frame(2)&lt;br&gt;Global frame&lt;br&gt;Variables for categories of food/drink&amp;nbsp;" style="rounded=0;whiteSpace=wrap;html=1;fillColor=#d5e8d4;strokeColor=#82b366;" parent="WIyWlLk6GJQsqaUBKTNV-1" vertex="1">
          <mxGeometry x="1215" y="106.25" width="120" height="87.5" as="geometry" />
        </mxCell>
        <mxCell id="4vMxq4SAuJxIeTTvpFit-12" style="edgeStyle=orthogonalEdgeStyle;rounded=0;orthogonalLoop=1;jettySize=auto;html=1;entryX=0;entryY=0.5;entryDx=0;entryDy=0;" parent="WIyWlLk6GJQsqaUBKTNV-1" target="4vMxq4SAuJxIeTTvpFit-1" edge="1">
          <mxGeometry relative="1" as="geometry">
            <mxPoint x="1510" y="150" as="sourcePoint" />
          </mxGeometry>
        </mxCell>
        <mxCell id="4vMxq4SAuJxIeTTvpFit-9" value="Widget label:&lt;br&gt;&quot;What would you like&lt;br&gt;to order?&quot;" style="shape=parallelogram;perimeter=parallelogramPerimeter;whiteSpace=wrap;html=1;fixedSize=1;fillColor=#1ba1e2;strokeColor=#006EAF;fontColor=#ffffff;" parent="WIyWlLk6GJQsqaUBKTNV-1" vertex="1">
          <mxGeometry x="1380" y="120" width="150" height="60" as="geometry" />
        </mxCell>
        <mxCell id="4vMxq4SAuJxIeTTvpFit-20" style="edgeStyle=orthogonalEdgeStyle;rounded=0;orthogonalLoop=1;jettySize=auto;html=1;entryX=0;entryY=0.5;entryDx=0;entryDy=0;" parent="WIyWlLk6GJQsqaUBKTNV-1" source="4vMxq4SAuJxIeTTvpFit-13" target="4vMxq4SAuJxIeTTvpFit-5" edge="1">
          <mxGeometry relative="1" as="geometry" />
        </mxCell>
        <mxCell id="z5xTHiLA5cGySQYqo-3w-3" style="edgeStyle=orthogonalEdgeStyle;rounded=0;orthogonalLoop=1;jettySize=auto;html=1;entryX=0.5;entryY=1;entryDx=0;entryDy=0;" parent="WIyWlLk6GJQsqaUBKTNV-1" source="4vMxq4SAuJxIeTTvpFit-13" target="4vMxq4SAuJxIeTTvpFit-53" edge="1">
          <mxGeometry relative="1" as="geometry" />
        </mxCell>
        <mxCell id="4vMxq4SAuJxIeTTvpFit-13" value="&lt;br&gt;Widget:&lt;br&gt;&amp;nbsp;spinbox1&amp;nbsp;" style="shape=parallelogram;perimeter=parallelogramPerimeter;whiteSpace=wrap;html=1;fixedSize=1;fillColor=#dae8fc;strokeColor=#6c8ebf;" parent="WIyWlLk6GJQsqaUBKTNV-1" vertex="1">
          <mxGeometry x="1725" y="120" width="150" height="60" as="geometry" />
        </mxCell>
        <mxCell id="4vMxq4SAuJxIeTTvpFit-37" style="edgeStyle=orthogonalEdgeStyle;rounded=0;orthogonalLoop=1;jettySize=auto;html=1;" parent="WIyWlLk6GJQsqaUBKTNV-1" source="4vMxq4SAuJxIeTTvpFit-14" target="4vMxq4SAuJxIeTTvpFit-36" edge="1">
          <mxGeometry relative="1" as="geometry" />
        </mxCell>
        <mxCell id="4vMxq4SAuJxIeTTvpFit-14" value="&lt;br&gt;Widget combo box&lt;br&gt;(Frozen)" style="shape=parallelogram;perimeter=parallelogramPerimeter;whiteSpace=wrap;html=1;fixedSize=1;fillColor=#dae8fc;strokeColor=#6c8ebf;" parent="WIyWlLk6GJQsqaUBKTNV-1" vertex="1">
          <mxGeometry x="1359" y="235" width="150" height="60" as="geometry" />
        </mxCell>
        <mxCell id="4vMxq4SAuJxIeTTvpFit-34" style="edgeStyle=orthogonalEdgeStyle;rounded=0;orthogonalLoop=1;jettySize=auto;html=1;" parent="WIyWlLk6GJQsqaUBKTNV-1" source="4vMxq4SAuJxIeTTvpFit-30" target="4vMxq4SAuJxIeTTvpFit-6" edge="1">
          <mxGeometry relative="1" as="geometry" />
        </mxCell>
        <mxCell id="z5xTHiLA5cGySQYqo-3w-5" style="edgeStyle=orthogonalEdgeStyle;rounded=0;orthogonalLoop=1;jettySize=auto;html=1;entryX=0.5;entryY=1;entryDx=0;entryDy=0;" parent="WIyWlLk6GJQsqaUBKTNV-1" source="4vMxq4SAuJxIeTTvpFit-30" target="4vMxq4SAuJxIeTTvpFit-55" edge="1">
          <mxGeometry relative="1" as="geometry" />
        </mxCell>
        <mxCell id="4vMxq4SAuJxIeTTvpFit-30" value="&lt;br&gt;Widget:&lt;br&gt;&amp;nbsp;spinbox2" style="shape=parallelogram;perimeter=parallelogramPerimeter;whiteSpace=wrap;html=1;fixedSize=1;fillColor=#dae8fc;strokeColor=#6c8ebf;" parent="WIyWlLk6GJQsqaUBKTNV-1" vertex="1">
          <mxGeometry x="2070" y="120" width="150" height="60" as="geometry" />
        </mxCell>
        <mxCell id="4vMxq4SAuJxIeTTvpFit-32" style="edgeStyle=orthogonalEdgeStyle;rounded=0;orthogonalLoop=1;jettySize=auto;html=1;entryX=0;entryY=0.5;entryDx=0;entryDy=0;" parent="WIyWlLk6GJQsqaUBKTNV-1" source="4vMxq4SAuJxIeTTvpFit-31" target="4vMxq4SAuJxIeTTvpFit-14" edge="1">
          <mxGeometry relative="1" as="geometry" />
        </mxCell>
        <mxCell id="4vMxq4SAuJxIeTTvpFit-52" style="edgeStyle=orthogonalEdgeStyle;rounded=0;orthogonalLoop=1;jettySize=auto;html=1;" parent="WIyWlLk6GJQsqaUBKTNV-1" source="4vMxq4SAuJxIeTTvpFit-31" target="4vMxq4SAuJxIeTTvpFit-51" edge="1">
          <mxGeometry relative="1" as="geometry" />
        </mxCell>
        <mxCell id="4vMxq4SAuJxIeTTvpFit-31" value="&lt;br&gt;Widget spin box&lt;br&gt;(3)" style="shape=parallelogram;perimeter=parallelogramPerimeter;whiteSpace=wrap;html=1;fixedSize=1;fillColor=#dae8fc;strokeColor=#6c8ebf;" parent="WIyWlLk6GJQsqaUBKTNV-1" vertex="1">
          <mxGeometry x="1200" y="235" width="150" height="60" as="geometry" />
        </mxCell>
        <mxCell id="4vMxq4SAuJxIeTTvpFit-39" style="edgeStyle=orthogonalEdgeStyle;rounded=0;orthogonalLoop=1;jettySize=auto;html=1;" parent="WIyWlLk6GJQsqaUBKTNV-1" source="4vMxq4SAuJxIeTTvpFit-36" target="4vMxq4SAuJxIeTTvpFit-38" edge="1">
          <mxGeometry relative="1" as="geometry" />
        </mxCell>
        <mxCell id="4vMxq4SAuJxIeTTvpFit-59" style="edgeStyle=orthogonalEdgeStyle;rounded=0;orthogonalLoop=1;jettySize=auto;html=1;" parent="WIyWlLk6GJQsqaUBKTNV-1" source="4vMxq4SAuJxIeTTvpFit-36" target="4vMxq4SAuJxIeTTvpFit-57" edge="1">
          <mxGeometry relative="1" as="geometry" />
        </mxCell>
        <mxCell id="4vMxq4SAuJxIeTTvpFit-36" value="&lt;br&gt;Widget spin box&lt;br&gt;(4)" style="shape=parallelogram;perimeter=parallelogramPerimeter;whiteSpace=wrap;html=1;fixedSize=1;fillColor=#dae8fc;strokeColor=#6c8ebf;" parent="WIyWlLk6GJQsqaUBKTNV-1" vertex="1">
          <mxGeometry x="1539" y="235" width="150" height="60" as="geometry" />
        </mxCell>
        <mxCell id="4vMxq4SAuJxIeTTvpFit-41" style="edgeStyle=orthogonalEdgeStyle;rounded=0;orthogonalLoop=1;jettySize=auto;html=1;" parent="WIyWlLk6GJQsqaUBKTNV-1" source="4vMxq4SAuJxIeTTvpFit-38" target="4vMxq4SAuJxIeTTvpFit-40" edge="1">
          <mxGeometry relative="1" as="geometry" />
        </mxCell>
        <mxCell id="z5xTHiLA5cGySQYqo-3w-17" style="edgeStyle=orthogonalEdgeStyle;rounded=0;orthogonalLoop=1;jettySize=auto;html=1;" parent="WIyWlLk6GJQsqaUBKTNV-1" source="4vMxq4SAuJxIeTTvpFit-38" target="4vMxq4SAuJxIeTTvpFit-60" edge="1">
          <mxGeometry relative="1" as="geometry" />
        </mxCell>
        <mxCell id="4vMxq4SAuJxIeTTvpFit-38" value="Button1&lt;br&gt;(Add order)" style="shape=parallelogram;perimeter=parallelogramPerimeter;whiteSpace=wrap;html=1;fixedSize=1;fillColor=#dae8fc;strokeColor=#6c8ebf;" parent="WIyWlLk6GJQsqaUBKTNV-1" vertex="1">
          <mxGeometry x="1709" y="235" width="150" height="60" as="geometry" />
        </mxCell>
        <mxCell id="4vMxq4SAuJxIeTTvpFit-47" style="edgeStyle=orthogonalEdgeStyle;rounded=0;orthogonalLoop=1;jettySize=auto;html=1;entryX=0;entryY=0.5;entryDx=0;entryDy=0;" parent="WIyWlLk6GJQsqaUBKTNV-1" source="4vMxq4SAuJxIeTTvpFit-40" target="4vMxq4SAuJxIeTTvpFit-42" edge="1">
          <mxGeometry relative="1" as="geometry" />
        </mxCell>
        <mxCell id="z5xTHiLA5cGySQYqo-3w-18" style="edgeStyle=orthogonalEdgeStyle;rounded=0;orthogonalLoop=1;jettySize=auto;html=1;" parent="WIyWlLk6GJQsqaUBKTNV-1" source="4vMxq4SAuJxIeTTvpFit-40" target="z5xTHiLA5cGySQYqo-3w-15" edge="1">
          <mxGeometry relative="1" as="geometry" />
        </mxCell>
        <mxCell id="4vMxq4SAuJxIeTTvpFit-40" value="Button2&lt;br&gt;(View order)" style="shape=parallelogram;perimeter=parallelogramPerimeter;whiteSpace=wrap;html=1;fixedSize=1;fillColor=#dae8fc;strokeColor=#6c8ebf;" parent="WIyWlLk6GJQsqaUBKTNV-1" vertex="1">
          <mxGeometry x="1879" y="235" width="150" height="60" as="geometry" />
        </mxCell>
        <mxCell id="4vMxq4SAuJxIeTTvpFit-49" style="edgeStyle=orthogonalEdgeStyle;rounded=0;orthogonalLoop=1;jettySize=auto;html=1;" parent="WIyWlLk6GJQsqaUBKTNV-1" source="4vMxq4SAuJxIeTTvpFit-42" target="4vMxq4SAuJxIeTTvpFit-48" edge="1">
          <mxGeometry relative="1" as="geometry" />
        </mxCell>
        <mxCell id="4vMxq4SAuJxIeTTvpFit-65" style="edgeStyle=orthogonalEdgeStyle;rounded=0;orthogonalLoop=1;jettySize=auto;html=1;entryX=0.5;entryY=0;entryDx=0;entryDy=0;" parent="WIyWlLk6GJQsqaUBKTNV-1" source="4vMxq4SAuJxIeTTvpFit-42" target="4vMxq4SAuJxIeTTvpFit-68" edge="1">
          <mxGeometry relative="1" as="geometry">
            <mxPoint x="2275" y="331.88" as="targetPoint" />
            <Array as="points">
              <mxPoint x="2275" y="314.38" />
              <mxPoint x="2276" y="314.38" />
            </Array>
          </mxGeometry>
        </mxCell>
        <mxCell id="4vMxq4SAuJxIeTTvpFit-42" value="Button3&lt;br&gt;(Checkout)" style="shape=parallelogram;perimeter=parallelogramPerimeter;whiteSpace=wrap;html=1;fixedSize=1;fillColor=#dae8fc;strokeColor=#6c8ebf;" parent="WIyWlLk6GJQsqaUBKTNV-1" vertex="1">
          <mxGeometry x="2200" y="233.13" width="150" height="60" as="geometry" />
        </mxCell>
        <mxCell id="4vMxq4SAuJxIeTTvpFit-67" style="edgeStyle=orthogonalEdgeStyle;rounded=0;orthogonalLoop=1;jettySize=auto;html=1;" parent="WIyWlLk6GJQsqaUBKTNV-1" source="4vMxq4SAuJxIeTTvpFit-48" target="z5xTHiLA5cGySQYqo-3w-49" edge="1">
          <mxGeometry relative="1" as="geometry">
            <mxPoint x="2585" y="351.2499999999998" as="targetPoint" />
          </mxGeometry>
        </mxCell>
        <mxCell id="z5xTHiLA5cGySQYqo-3w-9" style="edgeStyle=orthogonalEdgeStyle;rounded=0;orthogonalLoop=1;jettySize=auto;html=1;" parent="WIyWlLk6GJQsqaUBKTNV-1" source="4vMxq4SAuJxIeTTvpFit-48" target="z5xTHiLA5cGySQYqo-3w-7" edge="1">
          <mxGeometry relative="1" as="geometry" />
        </mxCell>
        <mxCell id="4vMxq4SAuJxIeTTvpFit-48" value="Button4&lt;br&gt;(Remove order)" style="shape=parallelogram;perimeter=parallelogramPerimeter;whiteSpace=wrap;html=1;fixedSize=1;fillColor=#dae8fc;strokeColor=#6c8ebf;" parent="WIyWlLk6GJQsqaUBKTNV-1" vertex="1">
          <mxGeometry x="2510" y="233.13" width="150" height="60" as="geometry" />
        </mxCell>
        <mxCell id="4vMxq4SAuJxIeTTvpFit-51" value="Set combo box number from user input" style="rounded=0;whiteSpace=wrap;html=1;fillColor=#d5e8d4;strokeColor=#82b366;" parent="WIyWlLk6GJQsqaUBKTNV-1" vertex="1">
          <mxGeometry x="1215" y="322.5" width="120" height="87.5" as="geometry" />
        </mxCell>
        <mxCell id="4vMxq4SAuJxIeTTvpFit-53" value="Set combo box number from user input" style="rounded=0;whiteSpace=wrap;html=1;fillColor=#d5e8d4;strokeColor=#82b366;" parent="WIyWlLk6GJQsqaUBKTNV-1" vertex="1">
          <mxGeometry x="1739" y="-5" width="120" height="87.5" as="geometry" />
        </mxCell>
        <mxCell id="4vMxq4SAuJxIeTTvpFit-55" value="Set combo box number from user input" style="rounded=0;whiteSpace=wrap;html=1;fillColor=#d5e8d4;strokeColor=#82b366;" parent="WIyWlLk6GJQsqaUBKTNV-1" vertex="1">
          <mxGeometry x="2085" y="-5" width="120" height="87.5" as="geometry" />
        </mxCell>
        <mxCell id="4vMxq4SAuJxIeTTvpFit-57" value="Set combo box number from user input" style="rounded=0;whiteSpace=wrap;html=1;fillColor=#d5e8d4;strokeColor=#82b366;" parent="WIyWlLk6GJQsqaUBKTNV-1" vertex="1">
          <mxGeometry x="1554" y="327.5" width="120" height="87.5" as="geometry" />
        </mxCell>
        <mxCell id="4vMxq4SAuJxIeTTvpFit-60" value="Run add_ord function" style="rounded=0;whiteSpace=wrap;html=1;fillColor=#d5e8d4;strokeColor=#82b366;" parent="WIyWlLk6GJQsqaUBKTNV-1" vertex="1">
          <mxGeometry x="1724" y="330" width="120" height="87.5" as="geometry" />
        </mxCell>
        <mxCell id="4vMxq4SAuJxIeTTvpFit-62" value="Run view order&lt;br&gt;function" style="rounded=0;whiteSpace=wrap;html=1;fillColor=#d5e8d4;strokeColor=#82b366;" parent="WIyWlLk6GJQsqaUBKTNV-1" vertex="1">
          <mxGeometry x="1894" y="455" width="120" height="87.5" as="geometry" />
        </mxCell>
        <mxCell id="4vMxq4SAuJxIeTTvpFit-70" value="True" style="edgeStyle=orthogonalEdgeStyle;rounded=0;orthogonalLoop=1;jettySize=auto;html=1;entryX=0.5;entryY=0;entryDx=0;entryDy=0;" parent="WIyWlLk6GJQsqaUBKTNV-1" source="4vMxq4SAuJxIeTTvpFit-68" target="4vMxq4SAuJxIeTTvpFit-69" edge="1">
          <mxGeometry relative="1" as="geometry" />
        </mxCell>
        <mxCell id="4vMxq4SAuJxIeTTvpFit-73" value="False" style="edgeStyle=orthogonalEdgeStyle;rounded=0;orthogonalLoop=1;jettySize=auto;html=1;entryX=0.56;entryY=0.017;entryDx=0;entryDy=0;entryPerimeter=0;" parent="WIyWlLk6GJQsqaUBKTNV-1" source="4vMxq4SAuJxIeTTvpFit-68" target="4vMxq4SAuJxIeTTvpFit-75" edge="1">
          <mxGeometry relative="1" as="geometry">
            <mxPoint x="2371" y="524.38" as="targetPoint" />
          </mxGeometry>
        </mxCell>
        <mxCell id="4vMxq4SAuJxIeTTvpFit-68" value="If sum_1 &amp;gt;0&lt;br&gt;(total cost)" style="rhombus;whiteSpace=wrap;html=1;fillColor=#f8cecc;strokeColor=#b85450;" parent="WIyWlLk6GJQsqaUBKTNV-1" vertex="1">
          <mxGeometry x="2220" y="331.88" width="110" height="90" as="geometry" />
        </mxCell>
        <mxCell id="4vMxq4SAuJxIeTTvpFit-72" style="edgeStyle=orthogonalEdgeStyle;rounded=0;orthogonalLoop=1;jettySize=auto;html=1;entryX=0.5;entryY=0;entryDx=0;entryDy=0;" parent="WIyWlLk6GJQsqaUBKTNV-1" source="4vMxq4SAuJxIeTTvpFit-69" target="4vMxq4SAuJxIeTTvpFit-71" edge="1">
          <mxGeometry relative="1" as="geometry" />
        </mxCell>
        <mxCell id="4vMxq4SAuJxIeTTvpFit-69" value="Messagebox:&lt;br&gt;print order(list)" style="shape=parallelogram;perimeter=parallelogramPerimeter;whiteSpace=wrap;html=1;fixedSize=1;fillColor=#1ba1e2;strokeColor=#006EAF;fontColor=#ffffff;" parent="WIyWlLk6GJQsqaUBKTNV-1" vertex="1">
          <mxGeometry x="2200" y="464.38" width="150" height="60" as="geometry" />
        </mxCell>
        <mxCell id="Y4IjgwQX7hM3SWr65Pai-6" style="edgeStyle=orthogonalEdgeStyle;rounded=0;orthogonalLoop=1;jettySize=auto;html=1;entryX=0.5;entryY=0;entryDx=0;entryDy=0;" edge="1" parent="WIyWlLk6GJQsqaUBKTNV-1" source="4vMxq4SAuJxIeTTvpFit-71" target="Y4IjgwQX7hM3SWr65Pai-4">
          <mxGeometry relative="1" as="geometry" />
        </mxCell>
        <mxCell id="4vMxq4SAuJxIeTTvpFit-71" value="sum is set to 0&lt;br&gt;clear order list&lt;br&gt;run frame0" style="rounded=0;whiteSpace=wrap;html=1;fillColor=#d5e8d4;strokeColor=#82b366;" parent="WIyWlLk6GJQsqaUBKTNV-1" vertex="1">
          <mxGeometry x="2215" y="560" width="120" height="87.5" as="geometry" />
        </mxCell>
        <mxCell id="4vMxq4SAuJxIeTTvpFit-75" value="Messagebox:&lt;br&gt;&quot;Please make an&lt;br&gt;order&quot;" style="shape=parallelogram;perimeter=parallelogramPerimeter;whiteSpace=wrap;html=1;fixedSize=1;fillColor=#1ba1e2;strokeColor=#006EAF;fontColor=#ffffff;" parent="WIyWlLk6GJQsqaUBKTNV-1" vertex="1">
          <mxGeometry x="2350" y="544.38" width="150" height="60.62" as="geometry" />
        </mxCell>
        <mxCell id="z5xTHiLA5cGySQYqo-3w-59" style="edgeStyle=orthogonalEdgeStyle;rounded=0;orthogonalLoop=1;jettySize=auto;html=1;" parent="WIyWlLk6GJQsqaUBKTNV-1" source="z5xTHiLA5cGySQYqo-3w-7" target="z5xTHiLA5cGySQYqo-3w-56" edge="1">
          <mxGeometry relative="1" as="geometry" />
        </mxCell>
        <mxCell id="z5xTHiLA5cGySQYqo-3w-7" value="Button5&lt;br&gt;(Cancel entire&lt;br&gt;order)" style="shape=parallelogram;perimeter=parallelogramPerimeter;whiteSpace=wrap;html=1;fixedSize=1;fillColor=#dae8fc;strokeColor=#6c8ebf;" parent="WIyWlLk6GJQsqaUBKTNV-1" vertex="1">
          <mxGeometry x="2830" y="233.13" width="150" height="60" as="geometry" />
        </mxCell>
        <mxCell id="z5xTHiLA5cGySQYqo-3w-19" style="edgeStyle=orthogonalEdgeStyle;rounded=0;orthogonalLoop=1;jettySize=auto;html=1;entryX=0.5;entryY=0;entryDx=0;entryDy=0;" parent="WIyWlLk6GJQsqaUBKTNV-1" source="z5xTHiLA5cGySQYqo-3w-15" target="4vMxq4SAuJxIeTTvpFit-62" edge="1">
          <mxGeometry relative="1" as="geometry" />
        </mxCell>
        <mxCell id="z5xTHiLA5cGySQYqo-3w-20" value="True" style="edgeLabel;html=1;align=center;verticalAlign=middle;resizable=0;points=[];" parent="z5xTHiLA5cGySQYqo-3w-19" vertex="1" connectable="0">
          <mxGeometry x="-0.4275" y="1" relative="1" as="geometry">
            <mxPoint as="offset" />
          </mxGeometry>
        </mxCell>
        <mxCell id="z5xTHiLA5cGySQYqo-3w-28" value="False" style="edgeStyle=orthogonalEdgeStyle;rounded=0;orthogonalLoop=1;jettySize=auto;html=1;" parent="WIyWlLk6GJQsqaUBKTNV-1" source="z5xTHiLA5cGySQYqo-3w-15" target="z5xTHiLA5cGySQYqo-3w-26" edge="1">
          <mxGeometry relative="1" as="geometry" />
        </mxCell>
        <mxCell id="z5xTHiLA5cGySQYqo-3w-15" value="If sum_1 &amp;gt;0&lt;br&gt;(total cost)" style="rhombus;whiteSpace=wrap;html=1;fillColor=#f8cecc;strokeColor=#b85450;" parent="WIyWlLk6GJQsqaUBKTNV-1" vertex="1">
          <mxGeometry x="1899" y="322.5" width="110" height="90" as="geometry" />
        </mxCell>
        <mxCell id="z5xTHiLA5cGySQYqo-3w-26" value="Messagebox:&lt;br&gt;&quot;Please make an order" style="shape=parallelogram;perimeter=parallelogramPerimeter;whiteSpace=wrap;html=1;fixedSize=1;fillColor=#1ba1e2;strokeColor=#006EAF;fontColor=#ffffff;" parent="WIyWlLk6GJQsqaUBKTNV-1" vertex="1">
          <mxGeometry x="2045" y="337.5" width="150" height="60" as="geometry" />
        </mxCell>
        <mxCell id="z5xTHiLA5cGySQYqo-3w-47" value="True" style="edgeStyle=orthogonalEdgeStyle;rounded=0;orthogonalLoop=1;jettySize=auto;html=1;entryX=0.5;entryY=0;entryDx=0;entryDy=0;" parent="WIyWlLk6GJQsqaUBKTNV-1" source="z5xTHiLA5cGySQYqo-3w-49" target="z5xTHiLA5cGySQYqo-3w-52" edge="1">
          <mxGeometry relative="1" as="geometry">
            <mxPoint x="2585" y="483.7499999999998" as="targetPoint" />
          </mxGeometry>
        </mxCell>
        <mxCell id="z5xTHiLA5cGySQYqo-3w-48" value="False" style="edgeStyle=orthogonalEdgeStyle;rounded=0;orthogonalLoop=1;jettySize=auto;html=1;entryX=0.56;entryY=0.017;entryDx=0;entryDy=0;entryPerimeter=0;" parent="WIyWlLk6GJQsqaUBKTNV-1" source="z5xTHiLA5cGySQYqo-3w-49" target="z5xTHiLA5cGySQYqo-3w-53" edge="1">
          <mxGeometry relative="1" as="geometry">
            <mxPoint x="2681" y="543.75" as="targetPoint" />
          </mxGeometry>
        </mxCell>
        <mxCell id="z5xTHiLA5cGySQYqo-3w-49" value="If sum_1 &amp;gt;0&lt;br&gt;(total cost)" style="rhombus;whiteSpace=wrap;html=1;fillColor=#f8cecc;strokeColor=#b85450;" parent="WIyWlLk6GJQsqaUBKTNV-1" vertex="1">
          <mxGeometry x="2530" y="351.25" width="110" height="90" as="geometry" />
        </mxCell>
        <mxCell id="z5xTHiLA5cGySQYqo-3w-52" value="Run remove_order&lt;br&gt;function" style="rounded=0;whiteSpace=wrap;html=1;fillColor=#d5e8d4;strokeColor=#82b366;" parent="WIyWlLk6GJQsqaUBKTNV-1" vertex="1">
          <mxGeometry x="2525" y="485" width="120" height="87.5" as="geometry" />
        </mxCell>
        <mxCell id="z5xTHiLA5cGySQYqo-3w-53" value="Messagebox:&lt;br&gt;&quot;Please make an&lt;br&gt;order&quot;" style="shape=parallelogram;perimeter=parallelogramPerimeter;whiteSpace=wrap;html=1;fixedSize=1;fillColor=#1ba1e2;strokeColor=#006EAF;fontColor=#ffffff;" parent="WIyWlLk6GJQsqaUBKTNV-1" vertex="1">
          <mxGeometry x="2660" y="563.75" width="150" height="60.62" as="geometry" />
        </mxCell>
        <mxCell id="z5xTHiLA5cGySQYqo-3w-54" value="True" style="edgeStyle=orthogonalEdgeStyle;rounded=0;orthogonalLoop=1;jettySize=auto;html=1;entryX=0.5;entryY=0;entryDx=0;entryDy=0;" parent="WIyWlLk6GJQsqaUBKTNV-1" source="z5xTHiLA5cGySQYqo-3w-56" target="z5xTHiLA5cGySQYqo-3w-57" edge="1">
          <mxGeometry relative="1" as="geometry">
            <mxPoint x="2900" y="455.62999999999977" as="targetPoint" />
          </mxGeometry>
        </mxCell>
        <mxCell id="z5xTHiLA5cGySQYqo-3w-55" value="False" style="edgeStyle=orthogonalEdgeStyle;rounded=0;orthogonalLoop=1;jettySize=auto;html=1;entryX=0.56;entryY=0.017;entryDx=0;entryDy=0;entryPerimeter=0;" parent="WIyWlLk6GJQsqaUBKTNV-1" source="z5xTHiLA5cGySQYqo-3w-56" target="z5xTHiLA5cGySQYqo-3w-58" edge="1">
          <mxGeometry relative="1" as="geometry">
            <mxPoint x="2996" y="515.6300000000001" as="targetPoint" />
          </mxGeometry>
        </mxCell>
        <mxCell id="z5xTHiLA5cGySQYqo-3w-56" value="If sum_1 &amp;gt;0&lt;br&gt;(total cost)" style="rhombus;whiteSpace=wrap;html=1;fillColor=#f8cecc;strokeColor=#b85450;" parent="WIyWlLk6GJQsqaUBKTNV-1" vertex="1">
          <mxGeometry x="2845" y="323.13" width="110" height="90" as="geometry" />
        </mxCell>
        <mxCell id="z5xTHiLA5cGySQYqo-3w-57" value="Run cancel&lt;br&gt;entire order function" style="rounded=0;whiteSpace=wrap;html=1;fillColor=#d5e8d4;strokeColor=#82b366;" parent="WIyWlLk6GJQsqaUBKTNV-1" vertex="1">
          <mxGeometry x="2840" y="456.88" width="120" height="87.5" as="geometry" />
        </mxCell>
        <mxCell id="z5xTHiLA5cGySQYqo-3w-58" value="Messagebox:&lt;br&gt;&quot;Please make an&lt;br&gt;order&quot;" style="shape=parallelogram;perimeter=parallelogramPerimeter;whiteSpace=wrap;html=1;fixedSize=1;fillColor=#1ba1e2;strokeColor=#006EAF;fontColor=#ffffff;" parent="WIyWlLk6GJQsqaUBKTNV-1" vertex="1">
          <mxGeometry x="2980" y="470.32000000000005" width="150" height="60.62" as="geometry" />
        </mxCell>
        <mxCell id="D7sHGSh-YJXOcgbhnQ-f-0" style="edgeStyle=orthogonalEdgeStyle;rounded=0;orthogonalLoop=1;jettySize=auto;html=1;" parent="WIyWlLk6GJQsqaUBKTNV-1" source="D7sHGSh-YJXOcgbhnQ-f-1" target="D7sHGSh-YJXOcgbhnQ-f-6" edge="1">
          <mxGeometry relative="1" as="geometry" />
        </mxCell>
        <mxCell id="D7sHGSh-YJXOcgbhnQ-f-1" value="Start&lt;br&gt;(View order function)" style="rounded=1;whiteSpace=wrap;html=1;fillColor=#fff2cc;strokeColor=#d6b656;" parent="WIyWlLk6GJQsqaUBKTNV-1" vertex="1">
          <mxGeometry x="3170" y="124.36999999999999" width="120" height="37.5" as="geometry" />
        </mxCell>
        <mxCell id="D7sHGSh-YJXOcgbhnQ-f-2" style="edgeStyle=orthogonalEdgeStyle;rounded=0;orthogonalLoop=1;jettySize=auto;html=1;" parent="WIyWlLk6GJQsqaUBKTNV-1" source="D7sHGSh-YJXOcgbhnQ-f-6" target="D7sHGSh-YJXOcgbhnQ-f-8" edge="1">
          <mxGeometry relative="1" as="geometry">
            <mxPoint x="3490" y="143.12" as="targetPoint" />
          </mxGeometry>
        </mxCell>
        <mxCell id="D7sHGSh-YJXOcgbhnQ-f-3" value="True" style="edgeLabel;html=1;align=center;verticalAlign=middle;resizable=0;points=[];" parent="D7sHGSh-YJXOcgbhnQ-f-2" vertex="1" connectable="0">
          <mxGeometry x="-0.6085" y="-1" relative="1" as="geometry">
            <mxPoint x="10" y="-1" as="offset" />
          </mxGeometry>
        </mxCell>
        <mxCell id="D7sHGSh-YJXOcgbhnQ-f-4" style="edgeStyle=orthogonalEdgeStyle;rounded=0;orthogonalLoop=1;jettySize=auto;html=1;" parent="WIyWlLk6GJQsqaUBKTNV-1" source="D7sHGSh-YJXOcgbhnQ-f-6" target="D7sHGSh-YJXOcgbhnQ-f-10" edge="1">
          <mxGeometry relative="1" as="geometry" />
        </mxCell>
        <mxCell id="D7sHGSh-YJXOcgbhnQ-f-5" value="False" style="edgeLabel;html=1;align=center;verticalAlign=middle;resizable=0;points=[];" parent="D7sHGSh-YJXOcgbhnQ-f-4" vertex="1" connectable="0">
          <mxGeometry x="-0.3478" y="-2" relative="1" as="geometry">
            <mxPoint as="offset" />
          </mxGeometry>
        </mxCell>
        <mxCell id="D7sHGSh-YJXOcgbhnQ-f-6" value="If sum_1 &amp;gt;0&lt;br&gt;(total cost)" style="rhombus;whiteSpace=wrap;html=1;fillColor=#f8cecc;strokeColor=#b85450;" parent="WIyWlLk6GJQsqaUBKTNV-1" vertex="1">
          <mxGeometry x="3329" y="98.11999999999999" width="110" height="90" as="geometry" />
        </mxCell>
        <mxCell id="D7sHGSh-YJXOcgbhnQ-f-7" style="edgeStyle=orthogonalEdgeStyle;rounded=0;orthogonalLoop=1;jettySize=auto;html=1;" parent="WIyWlLk6GJQsqaUBKTNV-1" source="D7sHGSh-YJXOcgbhnQ-f-8" target="D7sHGSh-YJXOcgbhnQ-f-12" edge="1">
          <mxGeometry relative="1" as="geometry" />
        </mxCell>
        <mxCell id="D7sHGSh-YJXOcgbhnQ-f-8" value="Messagebox:&lt;br&gt;For loop display&lt;br&gt;order and sum-1" style="shape=parallelogram;perimeter=parallelogramPerimeter;whiteSpace=wrap;html=1;fixedSize=1;fillColor=#1ba1e2;strokeColor=#006EAF;fontColor=#ffffff;" parent="WIyWlLk6GJQsqaUBKTNV-1" vertex="1">
          <mxGeometry x="3485" y="113.11999999999999" width="150" height="60" as="geometry" />
        </mxCell>
        <mxCell id="D7sHGSh-YJXOcgbhnQ-f-9" style="edgeStyle=orthogonalEdgeStyle;rounded=0;orthogonalLoop=1;jettySize=auto;html=1;entryX=0.5;entryY=0;entryDx=0;entryDy=0;" parent="WIyWlLk6GJQsqaUBKTNV-1" source="D7sHGSh-YJXOcgbhnQ-f-10" target="D7sHGSh-YJXOcgbhnQ-f-11" edge="1">
          <mxGeometry relative="1" as="geometry" />
        </mxCell>
        <mxCell id="D7sHGSh-YJXOcgbhnQ-f-10" value="Messagebox:&lt;br&gt;&quot;Please make an order&quot;" style="shape=parallelogram;perimeter=parallelogramPerimeter;whiteSpace=wrap;html=1;fixedSize=1;fillColor=#1ba1e2;strokeColor=#006EAF;fontColor=#ffffff;" parent="WIyWlLk6GJQsqaUBKTNV-1" vertex="1">
          <mxGeometry x="3309" y="228.12" width="150" height="60" as="geometry" />
        </mxCell>
        <mxCell id="D7sHGSh-YJXOcgbhnQ-f-11" value="End" style="rounded=1;whiteSpace=wrap;html=1;fillColor=#fff2cc;strokeColor=#d6b656;" parent="WIyWlLk6GJQsqaUBKTNV-1" vertex="1">
          <mxGeometry x="3324" y="328.12" width="120" height="30" as="geometry" />
        </mxCell>
        <mxCell id="D7sHGSh-YJXOcgbhnQ-f-12" value="End" style="rounded=1;whiteSpace=wrap;html=1;fillColor=#fff2cc;strokeColor=#d6b656;" parent="WIyWlLk6GJQsqaUBKTNV-1" vertex="1">
          <mxGeometry x="3660" y="128.12" width="120" height="30" as="geometry" />
        </mxCell>
        <mxCell id="D7sHGSh-YJXOcgbhnQ-f-13" style="edgeStyle=orthogonalEdgeStyle;rounded=0;orthogonalLoop=1;jettySize=auto;html=1;" parent="WIyWlLk6GJQsqaUBKTNV-1" source="D7sHGSh-YJXOcgbhnQ-f-14" target="D7sHGSh-YJXOcgbhnQ-f-21" edge="1">
          <mxGeometry relative="1" as="geometry" />
        </mxCell>
        <mxCell id="D7sHGSh-YJXOcgbhnQ-f-14" value="Start&lt;br&gt;(Checkout function)" style="rounded=1;whiteSpace=wrap;html=1;fillColor=#fff2cc;strokeColor=#d6b656;" parent="WIyWlLk6GJQsqaUBKTNV-1" vertex="1">
          <mxGeometry x="3150" y="390.62" width="120" height="37.5" as="geometry" />
        </mxCell>
        <mxCell id="D7sHGSh-YJXOcgbhnQ-f-15" style="edgeStyle=orthogonalEdgeStyle;rounded=0;orthogonalLoop=1;jettySize=auto;html=1;entryX=0.5;entryY=0;entryDx=0;entryDy=0;" parent="WIyWlLk6GJQsqaUBKTNV-1" source="D7sHGSh-YJXOcgbhnQ-f-16" target="D7sHGSh-YJXOcgbhnQ-f-17" edge="1">
          <mxGeometry relative="1" as="geometry" />
        </mxCell>
        <mxCell id="D7sHGSh-YJXOcgbhnQ-f-16" value="Run view order&lt;br&gt;function" style="rounded=0;whiteSpace=wrap;html=1;fillColor=#d5e8d4;strokeColor=#82b366;" parent="WIyWlLk6GJQsqaUBKTNV-1" vertex="1">
          <mxGeometry x="3490" y="366.87" width="120" height="87.5" as="geometry" />
        </mxCell>
        <mxCell id="Y4IjgwQX7hM3SWr65Pai-1" style="edgeStyle=orthogonalEdgeStyle;rounded=0;orthogonalLoop=1;jettySize=auto;html=1;" edge="1" parent="WIyWlLk6GJQsqaUBKTNV-1" source="D7sHGSh-YJXOcgbhnQ-f-17" target="Y4IjgwQX7hM3SWr65Pai-0">
          <mxGeometry relative="1" as="geometry" />
        </mxCell>
        <mxCell id="D7sHGSh-YJXOcgbhnQ-f-17" value="Messagebox:&lt;br&gt;&quot;Please collect&lt;br&gt;your order at cafe&quot;" style="shape=parallelogram;perimeter=parallelogramPerimeter;whiteSpace=wrap;html=1;fixedSize=1;fillColor=#1ba1e2;strokeColor=#006EAF;fontColor=#ffffff;" parent="WIyWlLk6GJQsqaUBKTNV-1" vertex="1">
          <mxGeometry x="3475" y="509.37" width="150" height="60" as="geometry" />
        </mxCell>
        <mxCell id="D7sHGSh-YJXOcgbhnQ-f-18" style="edgeStyle=orthogonalEdgeStyle;rounded=0;orthogonalLoop=1;jettySize=auto;html=1;entryX=0;entryY=0.5;entryDx=0;entryDy=0;" parent="WIyWlLk6GJQsqaUBKTNV-1" source="D7sHGSh-YJXOcgbhnQ-f-21" target="D7sHGSh-YJXOcgbhnQ-f-16" edge="1">
          <mxGeometry relative="1" as="geometry" />
        </mxCell>
        <mxCell id="D7sHGSh-YJXOcgbhnQ-f-19" value="True" style="edgeLabel;html=1;align=center;verticalAlign=middle;resizable=0;points=[];" parent="D7sHGSh-YJXOcgbhnQ-f-18" vertex="1" connectable="0">
          <mxGeometry x="-0.3333" y="-1" relative="1" as="geometry">
            <mxPoint y="1" as="offset" />
          </mxGeometry>
        </mxCell>
        <mxCell id="D7sHGSh-YJXOcgbhnQ-f-20" value="False" style="edgeStyle=orthogonalEdgeStyle;rounded=0;orthogonalLoop=1;jettySize=auto;html=1;" parent="WIyWlLk6GJQsqaUBKTNV-1" source="D7sHGSh-YJXOcgbhnQ-f-21" target="D7sHGSh-YJXOcgbhnQ-f-23" edge="1">
          <mxGeometry relative="1" as="geometry" />
        </mxCell>
        <mxCell id="D7sHGSh-YJXOcgbhnQ-f-21" value="If sum_1 &amp;gt;0&lt;br&gt;(total cost)" style="rhombus;whiteSpace=wrap;html=1;fillColor=#f8cecc;strokeColor=#b85450;" parent="WIyWlLk6GJQsqaUBKTNV-1" vertex="1">
          <mxGeometry x="3320" y="364.37" width="110" height="90" as="geometry" />
        </mxCell>
        <mxCell id="D7sHGSh-YJXOcgbhnQ-f-22" style="edgeStyle=orthogonalEdgeStyle;rounded=0;orthogonalLoop=1;jettySize=auto;html=1;entryX=0.5;entryY=0;entryDx=0;entryDy=0;" parent="WIyWlLk6GJQsqaUBKTNV-1" source="D7sHGSh-YJXOcgbhnQ-f-23" target="D7sHGSh-YJXOcgbhnQ-f-24" edge="1">
          <mxGeometry relative="1" as="geometry" />
        </mxCell>
        <mxCell id="D7sHGSh-YJXOcgbhnQ-f-23" value="Messagebox:&lt;br&gt;&quot;Please make an order&quot;" style="shape=parallelogram;perimeter=parallelogramPerimeter;whiteSpace=wrap;html=1;fixedSize=1;fillColor=#1ba1e2;strokeColor=#006EAF;fontColor=#ffffff;" parent="WIyWlLk6GJQsqaUBKTNV-1" vertex="1">
          <mxGeometry x="3300" y="499.37" width="150" height="60" as="geometry" />
        </mxCell>
        <mxCell id="D7sHGSh-YJXOcgbhnQ-f-24" value="End" style="rounded=1;whiteSpace=wrap;html=1;fillColor=#fff2cc;strokeColor=#d6b656;" parent="WIyWlLk6GJQsqaUBKTNV-1" vertex="1">
          <mxGeometry x="3315" y="599.37" width="120" height="30" as="geometry" />
        </mxCell>
        <mxCell id="D7sHGSh-YJXOcgbhnQ-f-25" style="edgeStyle=orthogonalEdgeStyle;rounded=0;orthogonalLoop=1;jettySize=auto;html=1;" parent="WIyWlLk6GJQsqaUBKTNV-1" source="D7sHGSh-YJXOcgbhnQ-f-26" target="D7sHGSh-YJXOcgbhnQ-f-33" edge="1">
          <mxGeometry relative="1" as="geometry" />
        </mxCell>
        <mxCell id="D7sHGSh-YJXOcgbhnQ-f-26" value="Start&lt;br&gt;(Cancel entire order)" style="rounded=1;whiteSpace=wrap;html=1;fillColor=#fff2cc;strokeColor=#d6b656;" parent="WIyWlLk6GJQsqaUBKTNV-1" vertex="1">
          <mxGeometry x="3170" y="685.62" width="120" height="37.5" as="geometry" />
        </mxCell>
        <mxCell id="D7sHGSh-YJXOcgbhnQ-f-27" style="edgeStyle=orthogonalEdgeStyle;rounded=0;orthogonalLoop=1;jettySize=auto;html=1;entryX=0.5;entryY=0;entryDx=0;entryDy=0;" parent="WIyWlLk6GJQsqaUBKTNV-1" source="D7sHGSh-YJXOcgbhnQ-f-28" target="D7sHGSh-YJXOcgbhnQ-f-29" edge="1">
          <mxGeometry relative="1" as="geometry" />
        </mxCell>
        <mxCell id="D7sHGSh-YJXOcgbhnQ-f-28" value="Run view order&lt;br&gt;function" style="rounded=0;whiteSpace=wrap;html=1;fillColor=#d5e8d4;strokeColor=#82b366;" parent="WIyWlLk6GJQsqaUBKTNV-1" vertex="1">
          <mxGeometry x="3510" y="661.87" width="120" height="87.5" as="geometry" />
        </mxCell>
        <mxCell id="Y4IjgwQX7hM3SWr65Pai-3" style="edgeStyle=orthogonalEdgeStyle;rounded=0;orthogonalLoop=1;jettySize=auto;html=1;" edge="1" parent="WIyWlLk6GJQsqaUBKTNV-1" source="D7sHGSh-YJXOcgbhnQ-f-29" target="Y4IjgwQX7hM3SWr65Pai-2">
          <mxGeometry relative="1" as="geometry" />
        </mxCell>
        <mxCell id="D7sHGSh-YJXOcgbhnQ-f-29" value="Messagebox:&lt;br&gt;&quot;Please collect&lt;br&gt;your order at cafe&quot;" style="shape=parallelogram;perimeter=parallelogramPerimeter;whiteSpace=wrap;html=1;fixedSize=1;fillColor=#1ba1e2;strokeColor=#006EAF;fontColor=#ffffff;" parent="WIyWlLk6GJQsqaUBKTNV-1" vertex="1">
          <mxGeometry x="3495" y="804.37" width="150" height="60" as="geometry" />
        </mxCell>
        <mxCell id="D7sHGSh-YJXOcgbhnQ-f-30" style="edgeStyle=orthogonalEdgeStyle;rounded=0;orthogonalLoop=1;jettySize=auto;html=1;entryX=0;entryY=0.5;entryDx=0;entryDy=0;" parent="WIyWlLk6GJQsqaUBKTNV-1" source="D7sHGSh-YJXOcgbhnQ-f-33" target="D7sHGSh-YJXOcgbhnQ-f-28" edge="1">
          <mxGeometry relative="1" as="geometry" />
        </mxCell>
        <mxCell id="D7sHGSh-YJXOcgbhnQ-f-31" value="True" style="edgeLabel;html=1;align=center;verticalAlign=middle;resizable=0;points=[];" parent="D7sHGSh-YJXOcgbhnQ-f-30" vertex="1" connectable="0">
          <mxGeometry x="-0.3333" y="-1" relative="1" as="geometry">
            <mxPoint y="1" as="offset" />
          </mxGeometry>
        </mxCell>
        <mxCell id="D7sHGSh-YJXOcgbhnQ-f-32" value="False" style="edgeStyle=orthogonalEdgeStyle;rounded=0;orthogonalLoop=1;jettySize=auto;html=1;" parent="WIyWlLk6GJQsqaUBKTNV-1" source="D7sHGSh-YJXOcgbhnQ-f-33" target="D7sHGSh-YJXOcgbhnQ-f-35" edge="1">
          <mxGeometry relative="1" as="geometry" />
        </mxCell>
        <mxCell id="D7sHGSh-YJXOcgbhnQ-f-33" value="If sum_1 &amp;gt;0&lt;br&gt;(total cost)" style="rhombus;whiteSpace=wrap;html=1;fillColor=#f8cecc;strokeColor=#b85450;" parent="WIyWlLk6GJQsqaUBKTNV-1" vertex="1">
          <mxGeometry x="3340" y="659.37" width="110" height="90" as="geometry" />
        </mxCell>
        <mxCell id="D7sHGSh-YJXOcgbhnQ-f-34" style="edgeStyle=orthogonalEdgeStyle;rounded=0;orthogonalLoop=1;jettySize=auto;html=1;entryX=0.5;entryY=0;entryDx=0;entryDy=0;" parent="WIyWlLk6GJQsqaUBKTNV-1" source="D7sHGSh-YJXOcgbhnQ-f-35" target="D7sHGSh-YJXOcgbhnQ-f-36" edge="1">
          <mxGeometry relative="1" as="geometry" />
        </mxCell>
        <mxCell id="D7sHGSh-YJXOcgbhnQ-f-35" value="Messagebox:&lt;br&gt;&quot;Please make an order&quot;" style="shape=parallelogram;perimeter=parallelogramPerimeter;whiteSpace=wrap;html=1;fixedSize=1;fillColor=#1ba1e2;strokeColor=#006EAF;fontColor=#ffffff;" parent="WIyWlLk6GJQsqaUBKTNV-1" vertex="1">
          <mxGeometry x="3320" y="794.37" width="150" height="60" as="geometry" />
        </mxCell>
        <mxCell id="D7sHGSh-YJXOcgbhnQ-f-36" value="End" style="rounded=1;whiteSpace=wrap;html=1;fillColor=#fff2cc;strokeColor=#d6b656;" parent="WIyWlLk6GJQsqaUBKTNV-1" vertex="1">
          <mxGeometry x="3335" y="894.37" width="120" height="30" as="geometry" />
        </mxCell>
        <mxCell id="D7sHGSh-YJXOcgbhnQ-f-41" style="edgeStyle=orthogonalEdgeStyle;rounded=0;orthogonalLoop=1;jettySize=auto;html=1;" parent="WIyWlLk6GJQsqaUBKTNV-1" source="D7sHGSh-YJXOcgbhnQ-f-37" target="D7sHGSh-YJXOcgbhnQ-f-40" edge="1">
          <mxGeometry relative="1" as="geometry" />
        </mxCell>
        <mxCell id="D7sHGSh-YJXOcgbhnQ-f-37" value="Start&lt;br&gt;(math function)" style="rounded=1;whiteSpace=wrap;html=1;fillColor=#fff2cc;strokeColor=#d6b656;" parent="WIyWlLk6GJQsqaUBKTNV-1" vertex="1">
          <mxGeometry x="1020" y="609.84" width="120" height="37.5" as="geometry" />
        </mxCell>
        <mxCell id="D7sHGSh-YJXOcgbhnQ-f-43" style="edgeStyle=orthogonalEdgeStyle;rounded=0;orthogonalLoop=1;jettySize=auto;html=1;" parent="WIyWlLk6GJQsqaUBKTNV-1" source="D7sHGSh-YJXOcgbhnQ-f-40" target="D7sHGSh-YJXOcgbhnQ-f-42" edge="1">
          <mxGeometry relative="1" as="geometry" />
        </mxCell>
        <mxCell id="D7sHGSh-YJXOcgbhnQ-f-40" value="order1(drink).get()&lt;br&gt;order1(price).get()&lt;br&gt;spinbox1.get()&lt;br&gt;&lt;br&gt;order2(lunch).get()&lt;br style=&quot;border-color: var(--border-color);&quot;&gt;order2(price).get()&lt;br style=&quot;border-color: var(--border-color);&quot;&gt;spinbox2.get()&lt;br&gt;&lt;br&gt;order3(snacks).get()&lt;br style=&quot;border-color: var(--border-color);&quot;&gt;order3(price).get()&lt;br style=&quot;border-color: var(--border-color);&quot;&gt;spinbox3.get()&lt;br&gt;&lt;br&gt;order4(Frozen).get()&lt;br style=&quot;border-color: var(--border-color);&quot;&gt;order4(price).get()&lt;br style=&quot;border-color: var(--border-color);&quot;&gt;spinbox4.get()&lt;br&gt;Found=False" style="rounded=0;whiteSpace=wrap;html=1;fillColor=#d5e8d4;strokeColor=#82b366;" parent="WIyWlLk6GJQsqaUBKTNV-1" vertex="1">
          <mxGeometry x="1200" y="513.75" width="120" height="229.68" as="geometry" />
        </mxCell>
        <mxCell id="D7sHGSh-YJXOcgbhnQ-f-52" value="True" style="edgeStyle=orthogonalEdgeStyle;rounded=0;orthogonalLoop=1;jettySize=auto;html=1;entryX=0.5;entryY=0;entryDx=0;entryDy=0;" parent="WIyWlLk6GJQsqaUBKTNV-1" source="D7sHGSh-YJXOcgbhnQ-f-42" target="D7sHGSh-YJXOcgbhnQ-f-51" edge="1">
          <mxGeometry relative="1" as="geometry" />
        </mxCell>
        <mxCell id="D7sHGSh-YJXOcgbhnQ-f-66" value="False" style="edgeStyle=orthogonalEdgeStyle;rounded=0;orthogonalLoop=1;jettySize=auto;html=1;" parent="WIyWlLk6GJQsqaUBKTNV-1" source="D7sHGSh-YJXOcgbhnQ-f-42" target="D7sHGSh-YJXOcgbhnQ-f-45" edge="1">
          <mxGeometry relative="1" as="geometry" />
        </mxCell>
        <mxCell id="D7sHGSh-YJXOcgbhnQ-f-42" value="If spinbox1&amp;gt;0" style="rhombus;whiteSpace=wrap;html=1;fillColor=#f8cecc;strokeColor=#b85450;" parent="WIyWlLk6GJQsqaUBKTNV-1" vertex="1">
          <mxGeometry x="1380" y="583.59" width="110" height="90" as="geometry" />
        </mxCell>
        <mxCell id="D7sHGSh-YJXOcgbhnQ-f-49" value="False" style="edgeStyle=orthogonalEdgeStyle;rounded=0;orthogonalLoop=1;jettySize=auto;html=1;" parent="WIyWlLk6GJQsqaUBKTNV-1" source="D7sHGSh-YJXOcgbhnQ-f-45" target="D7sHGSh-YJXOcgbhnQ-f-46" edge="1">
          <mxGeometry relative="1" as="geometry" />
        </mxCell>
        <mxCell id="D7sHGSh-YJXOcgbhnQ-f-67" value="True" style="edgeStyle=orthogonalEdgeStyle;rounded=0;orthogonalLoop=1;jettySize=auto;html=1;entryX=0.443;entryY=-0.004;entryDx=0;entryDy=0;entryPerimeter=0;" parent="WIyWlLk6GJQsqaUBKTNV-1" source="D7sHGSh-YJXOcgbhnQ-f-45" target="D7sHGSh-YJXOcgbhnQ-f-55" edge="1">
          <mxGeometry relative="1" as="geometry" />
        </mxCell>
        <mxCell id="D7sHGSh-YJXOcgbhnQ-f-45" value="If spinbox2&amp;gt;0" style="rhombus;whiteSpace=wrap;html=1;fillColor=#f8cecc;strokeColor=#b85450;" parent="WIyWlLk6GJQsqaUBKTNV-1" vertex="1">
          <mxGeometry x="1545" y="583.59" width="110" height="90" as="geometry" />
        </mxCell>
        <mxCell id="D7sHGSh-YJXOcgbhnQ-f-50" value="False" style="edgeStyle=orthogonalEdgeStyle;rounded=0;orthogonalLoop=1;jettySize=auto;html=1;" parent="WIyWlLk6GJQsqaUBKTNV-1" source="D7sHGSh-YJXOcgbhnQ-f-46" target="D7sHGSh-YJXOcgbhnQ-f-47" edge="1">
          <mxGeometry relative="1" as="geometry" />
        </mxCell>
        <mxCell id="D7sHGSh-YJXOcgbhnQ-f-68" value="True" style="edgeStyle=orthogonalEdgeStyle;rounded=0;orthogonalLoop=1;jettySize=auto;html=1;entryX=0.5;entryY=0;entryDx=0;entryDy=0;" parent="WIyWlLk6GJQsqaUBKTNV-1" source="D7sHGSh-YJXOcgbhnQ-f-46" target="D7sHGSh-YJXOcgbhnQ-f-56" edge="1">
          <mxGeometry relative="1" as="geometry" />
        </mxCell>
        <mxCell id="D7sHGSh-YJXOcgbhnQ-f-46" value="If spinbox3&amp;gt;0" style="rhombus;whiteSpace=wrap;html=1;fillColor=#f8cecc;strokeColor=#b85450;" parent="WIyWlLk6GJQsqaUBKTNV-1" vertex="1">
          <mxGeometry x="1740" y="583.59" width="110" height="90" as="geometry" />
        </mxCell>
        <mxCell id="D7sHGSh-YJXOcgbhnQ-f-70" value="True" style="edgeStyle=orthogonalEdgeStyle;rounded=0;orthogonalLoop=1;jettySize=auto;html=1;entryX=0.5;entryY=0;entryDx=0;entryDy=0;" parent="WIyWlLk6GJQsqaUBKTNV-1" source="D7sHGSh-YJXOcgbhnQ-f-47" target="D7sHGSh-YJXOcgbhnQ-f-57" edge="1">
          <mxGeometry relative="1" as="geometry" />
        </mxCell>
        <mxCell id="D7sHGSh-YJXOcgbhnQ-f-47" value="If spinbox4&amp;gt;0" style="rhombus;whiteSpace=wrap;html=1;fillColor=#f8cecc;strokeColor=#b85450;" parent="WIyWlLk6GJQsqaUBKTNV-1" vertex="1">
          <mxGeometry x="1927" y="583.59" width="110" height="90" as="geometry" />
        </mxCell>
        <mxCell id="D7sHGSh-YJXOcgbhnQ-f-54" style="edgeStyle=orthogonalEdgeStyle;rounded=0;orthogonalLoop=1;jettySize=auto;html=1;" parent="WIyWlLk6GJQsqaUBKTNV-1" source="D7sHGSh-YJXOcgbhnQ-f-51" target="D7sHGSh-YJXOcgbhnQ-f-37" edge="1">
          <mxGeometry relative="1" as="geometry" />
        </mxCell>
        <mxCell id="D7sHGSh-YJXOcgbhnQ-f-75" style="edgeStyle=orthogonalEdgeStyle;rounded=0;orthogonalLoop=1;jettySize=auto;html=1;entryX=0;entryY=0.5;entryDx=0;entryDy=0;" parent="WIyWlLk6GJQsqaUBKTNV-1" source="D7sHGSh-YJXOcgbhnQ-f-51" target="D7sHGSh-YJXOcgbhnQ-f-73" edge="1">
          <mxGeometry relative="1" as="geometry">
            <Array as="points">
              <mxPoint x="1435" y="945" />
            </Array>
          </mxGeometry>
        </mxCell>
        <mxCell id="D7sHGSh-YJXOcgbhnQ-f-51" value="order.append(order1(drink)&lt;br&gt;order1(price) and spinbox1)&lt;br&gt;found=True" style="rounded=0;whiteSpace=wrap;html=1;fillColor=#d5e8d4;strokeColor=#82b366;" parent="WIyWlLk6GJQsqaUBKTNV-1" vertex="1">
          <mxGeometry x="1358" y="749.37" width="154" height="87.5" as="geometry" />
        </mxCell>
        <mxCell id="D7sHGSh-YJXOcgbhnQ-f-76" style="edgeStyle=orthogonalEdgeStyle;rounded=0;orthogonalLoop=1;jettySize=auto;html=1;" parent="WIyWlLk6GJQsqaUBKTNV-1" source="D7sHGSh-YJXOcgbhnQ-f-55" target="D7sHGSh-YJXOcgbhnQ-f-73" edge="1">
          <mxGeometry relative="1" as="geometry" />
        </mxCell>
        <mxCell id="D7sHGSh-YJXOcgbhnQ-f-55" value="order.append(order1(drink)&lt;br&gt;order1(price) and spinbox1)&lt;br&gt;found=True" style="rounded=0;whiteSpace=wrap;html=1;fillColor=#d5e8d4;strokeColor=#82b366;" parent="WIyWlLk6GJQsqaUBKTNV-1" vertex="1">
          <mxGeometry x="1530" y="749.37" width="158" height="87.5" as="geometry" />
        </mxCell>
        <mxCell id="D7sHGSh-YJXOcgbhnQ-f-77" style="edgeStyle=orthogonalEdgeStyle;rounded=0;orthogonalLoop=1;jettySize=auto;html=1;entryX=0.5;entryY=0;entryDx=0;entryDy=0;" parent="WIyWlLk6GJQsqaUBKTNV-1" source="D7sHGSh-YJXOcgbhnQ-f-56" target="D7sHGSh-YJXOcgbhnQ-f-73" edge="1">
          <mxGeometry relative="1" as="geometry" />
        </mxCell>
        <mxCell id="D7sHGSh-YJXOcgbhnQ-f-56" value="order.append(order1(drink)&lt;br&gt;order1(price) and spinbox1)&lt;br&gt;found=True" style="rounded=0;whiteSpace=wrap;html=1;fillColor=#d5e8d4;strokeColor=#82b366;" parent="WIyWlLk6GJQsqaUBKTNV-1" vertex="1">
          <mxGeometry x="1707" y="749.37" width="176" height="87.5" as="geometry" />
        </mxCell>
        <mxCell id="D7sHGSh-YJXOcgbhnQ-f-78" style="edgeStyle=orthogonalEdgeStyle;rounded=0;orthogonalLoop=1;jettySize=auto;html=1;entryX=1;entryY=0.5;entryDx=0;entryDy=0;" parent="WIyWlLk6GJQsqaUBKTNV-1" source="D7sHGSh-YJXOcgbhnQ-f-57" target="D7sHGSh-YJXOcgbhnQ-f-73" edge="1">
          <mxGeometry relative="1" as="geometry">
            <Array as="points">
              <mxPoint x="1982" y="945" />
            </Array>
          </mxGeometry>
        </mxCell>
        <mxCell id="D7sHGSh-YJXOcgbhnQ-f-57" value="order.append(order1(drink)&lt;br&gt;order1(price) and spinbox1)&lt;br&gt;found=True" style="rounded=0;whiteSpace=wrap;html=1;fillColor=#d5e8d4;strokeColor=#82b366;" parent="WIyWlLk6GJQsqaUBKTNV-1" vertex="1">
          <mxGeometry x="1894" y="749.37" width="176" height="87.5" as="geometry" />
        </mxCell>
        <mxCell id="D7sHGSh-YJXOcgbhnQ-f-82" value="True" style="edgeStyle=orthogonalEdgeStyle;rounded=0;orthogonalLoop=1;jettySize=auto;html=1;" parent="WIyWlLk6GJQsqaUBKTNV-1" source="D7sHGSh-YJXOcgbhnQ-f-73" target="D7sHGSh-YJXOcgbhnQ-f-81" edge="1">
          <mxGeometry relative="1" as="geometry" />
        </mxCell>
        <mxCell id="D7sHGSh-YJXOcgbhnQ-f-85" value="False" style="edgeStyle=orthogonalEdgeStyle;rounded=0;orthogonalLoop=1;jettySize=auto;html=1;" parent="WIyWlLk6GJQsqaUBKTNV-1" source="D7sHGSh-YJXOcgbhnQ-f-73" target="D7sHGSh-YJXOcgbhnQ-f-84" edge="1">
          <mxGeometry relative="1" as="geometry">
            <Array as="points">
              <mxPoint x="1650" y="1020" />
            </Array>
          </mxGeometry>
        </mxCell>
        <mxCell id="D7sHGSh-YJXOcgbhnQ-f-73" value="If found" style="rhombus;whiteSpace=wrap;html=1;fillColor=#f8cecc;strokeColor=#b85450;" parent="WIyWlLk6GJQsqaUBKTNV-1" vertex="1">
          <mxGeometry x="1630" y="900" width="110" height="90" as="geometry" />
        </mxCell>
        <mxCell id="D7sHGSh-YJXOcgbhnQ-f-89" style="edgeStyle=orthogonalEdgeStyle;rounded=0;orthogonalLoop=1;jettySize=auto;html=1;entryX=0.5;entryY=0;entryDx=0;entryDy=0;" parent="WIyWlLk6GJQsqaUBKTNV-1" source="D7sHGSh-YJXOcgbhnQ-f-81" target="D7sHGSh-YJXOcgbhnQ-f-88" edge="1">
          <mxGeometry relative="1" as="geometry" />
        </mxCell>
        <mxCell id="D7sHGSh-YJXOcgbhnQ-f-81" value="subtotal=all order price* spinbox&lt;br&gt;sum_1(total)=sum_1+ subtotal" style="rounded=0;whiteSpace=wrap;html=1;fillColor=#d5e8d4;strokeColor=#82b366;" parent="WIyWlLk6GJQsqaUBKTNV-1" vertex="1">
          <mxGeometry x="1606" y="1050" width="158" height="87.5" as="geometry" />
        </mxCell>
        <mxCell id="D7sHGSh-YJXOcgbhnQ-f-90" style="edgeStyle=orthogonalEdgeStyle;rounded=0;orthogonalLoop=1;jettySize=auto;html=1;" parent="WIyWlLk6GJQsqaUBKTNV-1" source="D7sHGSh-YJXOcgbhnQ-f-84" target="D7sHGSh-YJXOcgbhnQ-f-87" edge="1">
          <mxGeometry relative="1" as="geometry" />
        </mxCell>
        <mxCell id="D7sHGSh-YJXOcgbhnQ-f-84" value="Messagebox:&lt;br&gt;&quot;Please make an&lt;br&gt;order&quot;" style="shape=parallelogram;perimeter=parallelogramPerimeter;whiteSpace=wrap;html=1;fixedSize=1;fillColor=#1ba1e2;strokeColor=#006EAF;fontColor=#ffffff;" parent="WIyWlLk6GJQsqaUBKTNV-1" vertex="1">
          <mxGeometry x="1430" y="989.38" width="150" height="60.62" as="geometry" />
        </mxCell>
        <mxCell id="D7sHGSh-YJXOcgbhnQ-f-87" value="End" style="rounded=1;whiteSpace=wrap;html=1;fillColor=#fff2cc;strokeColor=#d6b656;" parent="WIyWlLk6GJQsqaUBKTNV-1" vertex="1">
          <mxGeometry x="1445" y="1078.75" width="120" height="30" as="geometry" />
        </mxCell>
        <mxCell id="D7sHGSh-YJXOcgbhnQ-f-88" value="End" style="rounded=1;whiteSpace=wrap;html=1;fillColor=#fff2cc;strokeColor=#d6b656;" parent="WIyWlLk6GJQsqaUBKTNV-1" vertex="1">
          <mxGeometry x="1625" y="1170" width="120" height="30" as="geometry" />
        </mxCell>
        <mxCell id="Y4IjgwQX7hM3SWr65Pai-0" value="End" style="rounded=1;whiteSpace=wrap;html=1;fillColor=#fff2cc;strokeColor=#d6b656;" vertex="1" parent="WIyWlLk6GJQsqaUBKTNV-1">
          <mxGeometry x="3490" y="599.37" width="120" height="30" as="geometry" />
        </mxCell>
        <mxCell id="Y4IjgwQX7hM3SWr65Pai-2" value="End" style="rounded=1;whiteSpace=wrap;html=1;fillColor=#fff2cc;strokeColor=#d6b656;" vertex="1" parent="WIyWlLk6GJQsqaUBKTNV-1">
          <mxGeometry x="3510" y="894.37" width="120" height="30" as="geometry" />
        </mxCell>
        <mxCell id="Y4IjgwQX7hM3SWr65Pai-4" value="End" style="rounded=1;whiteSpace=wrap;html=1;fillColor=#fff2cc;strokeColor=#d6b656;" vertex="1" parent="WIyWlLk6GJQsqaUBKTNV-1">
          <mxGeometry x="2215" y="673.59" width="120" height="30" as="geometry" />
        </mxCell>
      </root>
    </mxGraphModel>
  </diagram>
</mxfile>
